<svg xmlns="http://www.w3.org/2000/svg" viewBox="0 0 64 64" width="64" height="64">
  <rect width="64" height="64" rx="10" fill="#1C1C1A"/>
  <g transform="translate(32,32) scale(0.038) translate(-750,-750)">
    <path fill="#F5F0E8" d="M 834.367188 136.363281 C 837.410156 139.71875 834.363281 141.140625 832.746094 142.761719 C 805.695312 169.917969 778.605469 197.039062 751.507812 224.148438 C 736.425781 239.234375 721.308594 254.289062 706.21875 269.371094 C 705.199219 270.386719 703.6875 271.386719 703.425781 272.613281 C 701.75 280.535156 695.378906 284.855469 690.230469 290.007812 C 554.351562 425.929688 418.421875 561.796875 282.523438 697.695312 C 279.800781 700.417969 277.117188 702.957031 273.121094 703.707031 C 270.46875 704.207031 268.992188 706.527344 267.226562 708.292969 C 225.929688 749.585938 184.660156 790.898438 143.378906 832.203125 C 138.613281 836.972656 138.074219 836.746094 133.578125 832.089844 C 130.117188 828.5 132.394531 826.480469 134.8125 824.066406 C 174.976562 783.945312 215.121094 743.808594 255.277344 703.675781 C 259.339844 699.617188 263.769531 695.941406 265.238281 689.875 C 265.917969 687.078125 268.566406 685.21875 270.613281 683.175781 C 340.941406 612.882812 411.269531 542.589844 481.597656 472.300781 C 523.664062 430.253906 565.71875 388.191406 607.8125 346.171875 C 633.140625 320.886719 658.539062 295.675781 683.894531 270.421875 C 686.480469 267.84375 689.125 265.417969 692.921875 264.769531 C 695.457031 264.339844 696.792969 262.21875 698.429688 260.585938 C 739.871094 219.1875 781.300781 177.769531 822.730469 136.359375 C 828.257812 130.835938 828.261719 130.839844 834.367188 136.363281 Z"/>
    <path fill="#F5F0E8" d="M 748.359375 272.03125 C 742.84375 277.542969 737.582031 282.765625 732.347656 288.015625 C 729.070312 291.304688 725.476562 294.21875 724.582031 299.351562 C 724.09375 302.152344 721.441406 304.09375 719.382812 306.152344 C 582.28125 443.191406 445.195312 580.25 308.101562 717.300781 C 304.421875 720.976562 301.183594 725.164062 295.34375 725.863281 C 293.84375 726.042969 292.449219 727.890625 291.1875 729.15625 C 249.371094 770.957031 207.574219 812.777344 165.78125 854.601562 C 161.621094 858.769531 156.136719 857.65625 154.160156 852.191406 C 153.167969 849.453125 155.488281 848.265625 156.917969 846.832031 C 173.894531 829.792969 190.921875 812.8125 207.9375 795.816406 C 232.625 771.152344 257.3125 746.488281 282.007812 721.835938 C 284.574219 719.269531 287.003906 716.742188 287.878906 712.945312 C 288.492188 710.273438 290.695312 708.390625 292.625 706.460938 C 375.863281 623.222656 459.078125 539.96875 542.324219 456.742188 C 596.796875 402.277344 651.3125 347.863281 705.785156 293.398438 C 708.761719 290.421875 711.78125 287.644531 716.050781 286.667969 C 718.074219 286.207031 719.53125 284.789062 720.9375 283.375 C 749.765625 254.429688 778.558594 225.449219 807.417969 196.535156 C 820.699219 183.230469 834.152344 170.101562 847.40625 156.769531 C 850.191406 153.96875 852.207031 153.734375 854.957031 156.777344 C 857.578125 159.679688 858.925781 161.714844 855.375 165.238281 C 819.695312 200.648438 784.183594 236.226562 748.359375 272.03125 Z"/>
    <path fill="#C8A97A" d="M 344.882812 744.261719 C 399.101562 690.03125 453.039062 636.078125 506.988281 582.136719 C 584.59375 504.542969 662.199219 426.957031 739.839844 349.402344 C 744.128906 345.117188 748.191406 340.835938 754.484375 338.703125 C 758.355469 337.394531 761.171875 332.855469 764.363281 329.667969 C 805.523438 288.511719 846.652344 247.332031 887.835938 206.203125 C 889.554688 204.484375 891.117188 201.214844 894.398438 204.3125 C 898.769531 208.441406 899.222656 211.214844 895.8125 214.628906 C 854.402344 256.058594 812.972656 297.46875 771.550781 338.886719 C 767.492188 342.941406 762.960938 346.53125 761.617188 352.707031 C 761.007812 355.5 758.253906 357.335938 756.214844 359.375 C 623.371094 492.179688 490.515625 624.976562 357.648438 757.757812 C 356.511719 758.894531 355.277344 760.488281 353.886719 760.730469 C 346.824219 761.960938 342.949219 767.414062 338.410156 771.949219 C 297.234375 813.101562 256.097656 854.292969 214.945312 895.472656 C 211.480469 898.9375 205.027344 897.773438 203.082031 893.242188 C 201.917969 890.535156 204.390625 889.367188 205.816406 887.929688 C 219.847656 873.835938 233.933594 859.796875 248 845.738281 C 276.519531 817.242188 304.875 788.578125 333.71875 760.414062 C 338.597656 755.652344 340.050781 749.164062 344.882812 744.261719 Z"/>
    <path fill="#F5F0E8" d="M 583.753906 730.230469 C 647.324219 666.703125 710.625 603.445312 773.9375 540.203125 C 778.246094 535.902344 782.078125 530.992188 788.691406 529.742188 C 790.226562 529.453125 791.542969 527.625 792.8125 526.355469 C 849.210938 470 905.589844 413.628906 961.992188 357.273438 C 963.476562 355.792969 964.652344 353.800781 967.023438 353.488281 C 972.042969 360.699219 971.886719 363.78125 965.886719 369.78125 C 912.460938 423.230469 859.007812 476.648438 805.578125 530.09375 C 801.667969 534.003906 797.242188 537.433594 795.832031 543.371094 C 795.347656 545.414062 793.164062 547.164062 791.519531 548.808594 C 709.4375 630.863281 627.285156 712.851562 545.347656 795.050781 C 541.3125 799.101562 535.765625 799.601562 531.804688 803.613281 C 503.875 831.929688 475.710938 860.011719 447.574219 888.117188 C 421.480469 914.183594 395.339844 940.199219 369.199219 966.21875 C 363.476562 971.914062 360.9375 972.054688 353.203125 967.332031 C 353.328125 964.652344 355.628906 963.464844 357.210938 961.886719 C 411.789062 907.292969 466.40625 852.734375 521.019531 798.171875 C 524.199219 794.992188 527.554688 792.039062 528.519531 787.21875 C 529.097656 784.324219 531.539062 782.375 533.597656 780.324219 C 550.234375 763.726562 566.855469 747.113281 583.753906 730.230469 Z"/>
  </g>
</svg>
