<svg xmlns="http://www.w3.org/2000/svg" xmlns:xlink="http://www.w3.org/1999/xlink" width="2000" zoomAndPan="magnify" viewBox="0 0 1500 1499.999933" height="2000" preserveAspectRatio="xMidYMid meet" version="1.0"><defs><filter x="0%" y="0%" width="100%" height="100%" id="7c0a0b97c6"><feColorMatrix values="0 0 0 0 1 0 0 0 0 1 0 0 0 0 1 0 0 0 1 0" color-interpolation-filters="sRGB"/></filter><g/><clipPath id="afa78983a5"><rect x="0" width="1048" y="0" height="452"/></clipPath><mask id="6624b9a284"><g filter="url(#7c0a0b97c6)"><rect x="-150" width="1800" fill="#000000" y="-149.999993" height="1799.99992" fill-opacity="0.57"/></g></mask><clipPath id="7c8dcc27a0"><path d="M 0.160156 1 L 97 1 L 97 98 L 0.160156 98 Z M 0.160156 1 " clip-rule="nonzero"/></clipPath><clipPath id="c1fdb9aef1"><path d="M 73 74 L 170 74 L 170 170.71875 L 73 170.71875 Z M 73 74 " clip-rule="nonzero"/></clipPath><clipPath id="21f329521a"><path d="M 80 81 L 170 81 L 170 170.71875 L 80 170.71875 Z M 80 81 " clip-rule="nonzero"/></clipPath><clipPath id="55da755794"><path d="M 0.160156 0.800781 L 90 0.800781 L 90 91 L 0.160156 91 Z M 0.160156 0.800781 " clip-rule="nonzero"/></clipPath><clipPath id="80734521bf"><path d="M 0.160156 1 L 83 1 L 83 83 L 0.160156 83 Z M 0.160156 1 " clip-rule="nonzero"/></clipPath><clipPath id="743c5314cc"><path d="M 88 88 L 170 88 L 170 170.71875 L 88 170.71875 Z M 88 88 " clip-rule="nonzero"/></clipPath><clipPath id="f276e21d72"><rect x="0" width="171" y="0" height="171"/></clipPath></defs><g transform="matrix(1, 0, 0, 1, 216, 526)"><g clip-path="url(#afa78983a5)"><g fill="#F5F0E8" fill-opacity="1"><g transform="translate(1.35252, 244.11261)"><g><path d="M 156.296875 -8.28125 C 156.703125 -8.070312 156.90625 -7.660156 156.90625 -7.046875 L 156.90625 0 C 156.90625 0.8125 156.5 1.21875 155.6875 1.21875 L 31.875 1.21875 C 31.875 1.21875 30.851562 1.21875 28.8125 1.21875 C 26.769531 1.21875 25.75 1.21875 25.75 1.21875 C 24.925781 1.21875 24.515625 0.8125 24.515625 0 L 24.515625 -213 C 24.515625 -214.019531 24.925781 -214.53125 25.75 -214.53125 L 31.875 -214.53125 C 32.6875 -214.53125 33.09375 -214.019531 33.09375 -213 L 33.09375 -1.21875 L 88.5625 -1.21875 C 101.03125 -1.21875 111.347656 -1.367188 119.515625 -1.671875 C 127.691406 -1.984375 134.535156 -2.648438 140.046875 -3.671875 C 145.566406 -4.691406 150.578125 -6.226562 155.078125 -8.28125 C 155.484375 -8.476562 155.890625 -8.476562 156.296875 -8.28125 Z M 156.296875 -8.28125 "/></g></g></g><g fill="#F5F0E8" fill-opacity="1"><g transform="translate(138.037705, 244.11261)"><g><path d="M 136.375 -214.21875 C 137.195312 -214.019531 137.503906 -213.507812 137.296875 -212.6875 L 75.390625 -74.46875 L 75.390625 0 C 75.390625 0.8125 74.984375 1.21875 74.171875 1.21875 L 68.03125 1.21875 C 67.21875 1.21875 66.8125 0.8125 66.8125 0 L 66.8125 -74.46875 L 4.90625 -212.6875 C 4.90625 -212.894531 4.90625 -213.097656 4.90625 -213.296875 C 4.90625 -213.503906 5.003906 -213.609375 5.203125 -213.609375 C 5.203125 -213.816406 5.203125 -213.921875 5.203125 -213.921875 C 5.003906 -213.710938 5.003906 -213.710938 5.203125 -213.921875 C 5.203125 -213.921875 5.304688 -214.019531 5.515625 -214.21875 C 5.722656 -214.21875 5.722656 -214.21875 5.515625 -214.21875 C 5.722656 -214.425781 5.925781 -214.53125 6.125 -214.53125 L 12.875 -214.53125 C 13.488281 -214.53125 13.894531 -214.222656 14.09375 -213.609375 L 74.46875 -78.453125 L 134.84375 -213.609375 C 134.84375 -214.015625 135.046875 -214.21875 135.453125 -214.21875 C 135.867188 -214.425781 136.175781 -214.425781 136.375 -214.21875 Z M 136.375 -214.21875 "/></g></g></g><g fill="#F5F0E8" fill-opacity="1"><g transform="translate(257.254071, 244.11261)"><g><path d="M 92.859375 -214.53125 C 105.117188 -214.53125 116.253906 -211.515625 126.265625 -205.484375 C 136.273438 -199.460938 144.242188 -191.441406 150.171875 -181.421875 C 156.097656 -171.410156 159.0625 -160.378906 159.0625 -148.328125 L 159.0625 0 C 159.0625 0.8125 158.648438 1.21875 157.828125 1.21875 L 151.703125 1.21875 C 150.878906 1.21875 150.46875 0.8125 150.46875 0 L 150.46875 -148.328125 C 150.46875 -159.359375 147.757812 -169.472656 142.34375 -178.671875 C 136.9375 -187.867188 129.632812 -195.171875 120.4375 -200.578125 C 111.25 -205.992188 101.140625 -208.703125 90.109375 -208.703125 C 77.429688 -208.703125 65.882812 -205.078125 55.46875 -197.828125 C 45.050781 -190.578125 37.59375 -181.023438 33.09375 -169.171875 L 33.09375 0 C 33.09375 0.8125 32.6875 1.21875 31.875 1.21875 L 25.75 1.21875 C 24.925781 1.21875 24.515625 0.8125 24.515625 0 L 24.515625 -213 C 24.515625 -214.019531 24.925781 -214.53125 25.75 -214.53125 L 31.875 -214.53125 C 32.6875 -214.53125 33.09375 -214.019531 33.09375 -213 L 33.09375 -176.21875 C 38.613281 -187.863281 46.785156 -197.109375 57.609375 -203.953125 C 68.441406 -210.796875 80.191406 -214.320312 92.859375 -214.53125 Z M 92.859375 -214.53125 "/></g></g></g><g fill="#F5F0E8" fill-opacity="1"><g transform="translate(416.005115, 244.11261)"><g><path d="M 139.4375 -0.3125 C 139.4375 -0.101562 139.4375 0.101562 139.4375 0.3125 C 139.4375 0.507812 139.335938 0.609375 139.140625 0.609375 C 139.140625 0.609375 139.140625 0.710938 139.140625 0.921875 C 139.140625 0.710938 139.140625 0.710938 139.140625 0.921875 C 138.929688 0.921875 138.828125 1.019531 138.828125 1.21875 C 138.828125 1.21875 138.726562 1.21875 138.53125 1.21875 C 138.320312 1.21875 138.21875 1.21875 138.21875 1.21875 L 131.78125 1.21875 C 131.164062 1.21875 130.757812 0.914062 130.5625 0.3125 L 119.21875 -37.390625 L 20.84375 -37.390625 L 9.5 0.3125 C 9.289062 0.914062 8.882812 1.21875 8.28125 1.21875 C 8.28125 1.21875 8.175781 1.21875 7.96875 1.21875 C 7.15625 1.019531 6.847656 0.507812 7.046875 -0.3125 L 68.953125 -204.71875 L 71.71875 -214.53125 L 72.015625 -215.140625 C 72.015625 -215.140625 72.015625 -215.242188 72.015625 -215.453125 C 72.015625 -215.453125 72.117188 -215.453125 72.328125 -215.453125 C 72.328125 -215.648438 72.328125 -215.75 72.328125 -215.75 C 72.535156 -215.75 72.640625 -215.75 72.640625 -215.75 C 72.640625 -215.957031 72.640625 -216.0625 72.640625 -216.0625 C 72.835938 -216.0625 72.9375 -216.0625 72.9375 -216.0625 C 73.144531 -216.0625 73.25 -216.0625 73.25 -216.0625 C 73.445312 -216.0625 73.546875 -216.0625 73.546875 -216.0625 C 73.546875 -216.0625 73.648438 -216.0625 73.859375 -216.0625 C 73.859375 -216.0625 73.859375 -215.957031 73.859375 -215.75 C 74.066406 -215.75 74.171875 -215.75 74.171875 -215.75 C 74.171875 -215.75 74.171875 -215.648438 74.171875 -215.453125 C 74.367188 -215.453125 74.46875 -215.453125 74.46875 -215.453125 C 74.46875 -215.035156 74.46875 -214.929688 74.46875 -215.140625 Z M 70.1875 -199.8125 L 33.71875 -79.0625 L 106.65625 -79.0625 Z M 21.765625 -39.84375 L 118.296875 -39.84375 L 107.265625 -76.3125 L 32.796875 -76.3125 Z M 21.765625 -39.84375 "/></g></g></g><g fill="#F5F0E8" fill-opacity="1"><g transform="translate(539.512063, 244.11261)"><g><path d="M 167.03125 -44.75 C 167.84375 -44.75 168.25 -44.335938 168.25 -43.515625 C 168.25 -42.703125 167.84375 -42.296875 167.03125 -42.296875 C 160.695312 -42.492188 154.820312 -44.226562 149.40625 -47.5 C 143.988281 -50.769531 139.75 -55.164062 136.6875 -60.6875 L 97.453125 -128.40625 C 93.984375 -134.738281 89.082031 -139.691406 82.75 -143.265625 C 76.414062 -146.847656 69.671875 -148.640625 62.515625 -148.640625 L 31.5625 -148.640625 L 31.5625 -43.515625 C 31.5625 -42.703125 31.15625 -42.296875 30.34375 -42.296875 L 24.21875 -42.296875 C 23.394531 -42.296875 22.984375 -42.703125 22.984375 -43.515625 L 22.984375 -213 C 22.984375 -214.019531 23.394531 -214.53125 24.21875 -214.53125 L 30.34375 -214.53125 C 31.15625 -214.53125 31.5625 -214.019531 31.5625 -213 L 31.5625 -151.390625 L 87.03125 -151.390625 C 96.019531 -151.390625 104.191406 -153.738281 111.546875 -158.4375 C 118.910156 -163.144531 124.785156 -169.429688 129.171875 -177.296875 C 133.566406 -185.160156 135.765625 -193.894531 135.765625 -203.5 C 135.765625 -206.5625 135.457031 -209.726562 134.84375 -213 C 134.84375 -213.40625 134.945312 -213.710938 135.15625 -213.921875 C 135.351562 -214.328125 135.660156 -214.53125 136.078125 -214.53125 L 142.8125 -214.53125 C 143.632812 -214.53125 144.144531 -214.117188 144.34375 -213.296875 C 144.75 -210.035156 144.953125 -206.769531 144.953125 -203.5 C 144.953125 -193.28125 142.5 -184.082031 137.59375 -175.90625 C 132.695312 -167.738281 126.160156 -161.203125 117.984375 -156.296875 C 109.816406 -151.390625 100.625 -148.835938 90.40625 -148.640625 L 79.0625 -148.640625 C 92.757812 -144.347656 103.179688 -136.070312 110.328125 -123.8125 L 149.25 -56.078125 C 153.132812 -49.128906 159.0625 -45.351562 167.03125 -44.75 Z M 90.40625 -29.421875 C 100.625 -29.421875 110.019531 -26.816406 118.59375 -21.609375 C 127.175781 -16.398438 133.820312 -9.398438 138.53125 -0.609375 C 138.726562 -0.203125 138.726562 0.203125 138.53125 0.609375 C 138.320312 1.015625 137.910156 1.21875 137.296875 1.21875 L 130.859375 1.21875 C 130.453125 1.21875 130.144531 1.015625 129.9375 0.609375 C 125.851562 -7.554688 119.976562 -14.09375 112.3125 -19 C 104.65625 -23.90625 96.226562 -26.457031 87.03125 -26.65625 L 31.5625 -26.65625 L 31.5625 0 C 31.5625 0.8125 31.15625 1.21875 30.34375 1.21875 L 24.21875 1.21875 C 23.394531 1.21875 22.984375 0.8125 22.984375 0 L 22.984375 -27.890625 C 22.984375 -28.910156 23.394531 -29.421875 24.21875 -29.421875 Z M 90.40625 -29.421875 "/></g></g></g><g fill="#F5F0E8" fill-opacity="1"><g transform="translate(690.294838, 244.11261)"><g><path d="M 77.84375 -211.765625 C 77.226562 -212.179688 77.023438 -212.691406 77.234375 -213.296875 C 77.234375 -214.117188 77.640625 -214.53125 78.453125 -214.53125 L 81.21875 -214.53125 C 81.414062 -214.53125 81.617188 -214.425781 81.828125 -214.21875 C 94.085938 -208.90625 106.859375 -205.84375 120.140625 -205.03125 L 122.890625 -205.03125 C 138.015625 -205.03125 152.519531 -208.09375 166.40625 -214.21875 C 167.226562 -214.625 167.84375 -214.421875 168.25 -213.609375 C 168.65625 -212.796875 168.453125 -212.179688 167.640625 -211.765625 C 153.335938 -205.429688 138.421875 -202.265625 122.890625 -202.265625 C 122.890625 -202.265625 122.789062 -202.265625 122.59375 -202.265625 L 119.828125 -202.265625 C 105.316406 -203.085938 91.320312 -206.253906 77.84375 -211.765625 Z M 210.546875 -145.578125 C 210.953125 -144.960938 210.847656 -144.347656 210.234375 -143.734375 L 205.328125 -138.828125 C 205.128906 -138.421875 204.828125 -138.21875 204.421875 -138.21875 C 204.421875 -138.21875 204.316406 -138.21875 204.109375 -138.21875 C 203.703125 -138.425781 203.394531 -138.734375 203.1875 -139.140625 C 198.894531 -149.347656 192.609375 -158.128906 184.328125 -165.484375 C 176.054688 -172.847656 166.613281 -178.160156 156 -181.421875 L 155.375 -181.734375 C 154.5625 -181.941406 153.847656 -182.144531 153.234375 -182.34375 L 152.625 -182.65625 C 142.8125 -185.519531 132.898438 -186.953125 122.890625 -186.953125 L 120.140625 -186.640625 C 106.648438 -186.023438 94.03125 -182.703125 82.28125 -176.671875 C 70.539062 -170.648438 60.175781 -162.734375 51.1875 -152.921875 C 42.195312 -143.117188 35.195312 -131.984375 30.1875 -119.515625 C 25.175781 -107.054688 22.671875 -93.78125 22.671875 -79.6875 C 22.472656 -64.96875 25.234375 -50.765625 30.953125 -37.078125 C 36.671875 -23.390625 44.742188 -11.335938 55.171875 -0.921875 C 55.578125 -0.515625 55.675781 -0.00390625 55.46875 0.609375 C 55.269531 1.015625 54.863281 1.21875 54.25 1.21875 L 49.640625 1.21875 C 49.234375 1.21875 48.929688 1.117188 48.734375 0.921875 C 37.492188 -9.492188 28.753906 -21.703125 22.515625 -35.703125 C 16.285156 -49.703125 13.171875 -64.363281 13.171875 -79.6875 C 13.171875 -94.1875 15.929688 -107.875 21.453125 -120.75 C 26.972656 -133.625 34.632812 -145.066406 44.4375 -155.078125 C 54.25 -165.085938 65.585938 -173.101562 78.453125 -179.125 C 91.328125 -185.15625 105.117188 -188.578125 119.828125 -189.390625 L 122.890625 -189.390625 C 133.316406 -189.390625 143.429688 -187.960938 153.234375 -185.109375 L 153.546875 -185.109375 L 153.84375 -184.796875 C 154.25 -184.796875 154.96875 -184.59375 156 -184.1875 L 156.90625 -183.875 C 178.769531 -176.726562 196.648438 -163.960938 210.546875 -145.578125 Z M 210.546875 -145.578125 "/></g></g></g><g fill="#F5F0E8" fill-opacity="1"><g transform="translate(883.370516, 244.11261)"><g><path d="M 157.21875 -214.53125 C 158.03125 -214.53125 158.4375 -214.019531 158.4375 -213 L 158.4375 0 C 158.4375 0.8125 158.03125 1.21875 157.21875 1.21875 L 151.09375 1.21875 C 150.269531 1.21875 149.859375 0.8125 149.859375 0 L 149.859375 -69.265625 L 33.09375 -69.265625 L 33.09375 0 C 33.09375 0.8125 32.6875 1.21875 31.875 1.21875 L 25.75 1.21875 C 24.925781 1.21875 24.515625 0.8125 24.515625 0 L 24.515625 -213 C 24.515625 -214.019531 24.925781 -214.53125 25.75 -214.53125 L 31.875 -214.53125 C 32.6875 -214.53125 33.09375 -214.019531 33.09375 -213 L 33.09375 -110.9375 L 149.859375 -110.9375 L 149.859375 -213 C 149.859375 -214.019531 150.269531 -214.53125 151.09375 -214.53125 Z M 149.859375 -71.71875 L 149.859375 -108.1875 L 33.09375 -108.1875 L 33.09375 -71.71875 Z M 149.859375 -71.71875 "/></g></g></g><g fill="#F5F0E8" fill-opacity="1"><g transform="translate(301.372296, 395.819506)"><g><path d="M 11.34375 -48.578125 C 11.445312 -48.367188 11.5 -48.164062 11.5 -47.96875 C 11.082031 -45.507812 11.179688 -42.898438 11.796875 -40.140625 C 12.410156 -37.390625 13.890625 -34.734375 16.234375 -32.171875 C 18.585938 -29.617188 22.316406 -27.476562 27.421875 -25.75 C 31.410156 -24.414062 35.5 -23.75 39.6875 -23.75 C 40.09375 -23.75 40.601562 -23.800781 41.21875 -23.90625 C 41.9375 -23.90625 42.445312 -23.90625 42.75 -23.90625 C 47.757812 -24.3125 52.253906 -25.5625 56.234375 -27.65625 C 60.222656 -29.75 63.363281 -32.40625 65.65625 -35.625 C 67.957031 -38.84375 69.109375 -42.394531 69.109375 -46.28125 C 69.109375 -49.851562 68.085938 -53.195312 66.046875 -56.3125 C 64.003906 -59.425781 61.144531 -62.054688 57.46875 -64.203125 L 19.921875 -85.96875 C 15.734375 -88.414062 12.460938 -91.425781 10.109375 -95 C 7.765625 -98.582031 6.59375 -102.414062 6.59375 -106.5 C 6.59375 -106.601562 6.644531 -106.753906 6.75 -106.953125 C 6.84375 -107.054688 6.992188 -107.109375 7.203125 -107.109375 L 9.65625 -107.109375 C 10.0625 -107.109375 10.265625 -106.90625 10.265625 -106.5 C 10.984375 -99.851562 14.863281 -94.488281 21.90625 -90.40625 L 59.453125 -68.65625 C 63.640625 -66.300781 66.90625 -63.3125 69.25 -59.6875 C 71.601562 -56.0625 72.78125 -52.203125 72.78125 -48.109375 C 72.78125 -43.722656 71.476562 -39.664062 68.875 -35.9375 C 66.269531 -32.207031 62.691406 -29.164062 58.140625 -26.8125 C 53.597656 -24.46875 48.46875 -23.085938 42.75 -22.671875 C 42.445312 -22.578125 41.988281 -22.53125 41.375 -22.53125 L 41.0625 -22.53125 C 40.550781 -22.53125 40.09375 -22.53125 39.6875 -22.53125 C 35.394531 -22.53125 31.15625 -23.191406 26.96875 -24.515625 C 20.738281 -26.453125 15.785156 -29.566406 12.109375 -33.859375 C 8.429688 -38.148438 6.59375 -42.898438 6.59375 -48.109375 C 6.59375 -48.523438 6.796875 -48.734375 7.203125 -48.734375 L 10.875 -48.734375 C 11.082031 -48.734375 11.238281 -48.679688 11.34375 -48.578125 Z M 54.09375 -13.484375 C 61.65625 -10.617188 67.019531 -6.226562 70.1875 -0.3125 C 70.28125 -0.101562 70.28125 0.101562 70.1875 0.3125 C 70.082031 0.507812 69.925781 0.609375 69.71875 0.609375 L 67.890625 0.609375 C 67.578125 0.609375 67.367188 0.457031 67.265625 0.15625 C 65.429688 -5.363281 60.882812 -9.503906 53.625 -12.265625 L 53.328125 -12.40625 L 53.015625 -12.5625 C 52.710938 -12.664062 52.40625 -12.769531 52.09375 -12.875 L 51.953125 -12.875 C 47.960938 -14.195312 43.875 -14.804688 39.6875 -14.703125 C 39.382812 -14.703125 38.875 -14.703125 38.15625 -14.703125 C 37.539062 -14.703125 37.03125 -14.703125 36.625 -14.703125 C 31.101562 -13.992188 26.046875 -12.257812 21.453125 -9.5 C 16.859375 -6.738281 13.691406 -3.519531 11.953125 0.15625 C 11.847656 0.457031 11.644531 0.609375 11.34375 0.609375 L 9.8125 0.609375 C 9.5 0.609375 9.289062 0.507812 9.1875 0.3125 C 9.09375 0.101562 9.09375 -0.101562 9.1875 -0.3125 C 11.332031 -4.394531 14.90625 -7.863281 19.90625 -10.71875 C 24.914062 -13.582031 30.4375 -15.320312 36.46875 -15.9375 L 36.625 -15.9375 C 36.925781 -15.9375 37.382812 -15.988281 38 -16.09375 L 38.3125 -16.09375 C 38.925781 -16.09375 39.382812 -16.09375 39.6875 -16.09375 C 43.976562 -16.09375 48.21875 -15.425781 52.40625 -14.09375 C 52.613281 -14.09375 52.789062 -14.039062 52.9375 -13.9375 C 53.09375 -13.84375 53.273438 -13.796875 53.484375 -13.796875 C 53.679688 -13.691406 53.882812 -13.585938 54.09375 -13.484375 Z M 54.09375 -13.484375 "/></g></g></g><g fill="#F5F0E8" fill-opacity="1"><g transform="translate(368.181642, 395.819506)"><g><path d="M 86.125 -107.265625 C 86.632812 -107.265625 86.890625 -107.007812 86.890625 -106.5 L 86.890625 -102.96875 C 86.890625 -102.769531 86.785156 -102.566406 86.578125 -102.359375 C 86.472656 -102.359375 86.320312 -102.359375 86.125 -102.359375 C 86.125 -102.359375 86.070312 -102.359375 85.96875 -102.359375 C 83.71875 -103.484375 81.210938 -104.273438 78.453125 -104.734375 C 75.691406 -105.191406 72.269531 -105.5 68.1875 -105.65625 C 64.101562 -105.8125 58.945312 -105.890625 52.71875 -105.890625 L 46.28125 -105.890625 L 46.28125 0 C 46.28125 0.40625 46.070312 0.609375 45.65625 0.609375 L 42.59375 0.609375 C 42.1875 0.609375 41.984375 0.40625 41.984375 0 L 41.984375 -105.890625 L 35.546875 -105.890625 C 29.210938 -105.890625 24.003906 -105.8125 19.921875 -105.65625 C 15.835938 -105.5 12.441406 -105.191406 9.734375 -104.734375 C 7.023438 -104.273438 4.546875 -103.484375 2.296875 -102.359375 C 2.191406 -102.359375 2.085938 -102.359375 1.984375 -102.359375 C 1.890625 -102.359375 1.789062 -102.359375 1.6875 -102.359375 C 1.476562 -102.566406 1.375 -102.769531 1.375 -102.96875 L 1.375 -106.5 C 1.375 -107.007812 1.578125 -107.265625 1.984375 -107.265625 Z M 86.125 -107.265625 "/></g></g></g><g fill="#F5F0E8" fill-opacity="1"><g transform="translate(444.951162, 395.819506)"><g><path d="M 76.625 -107.265625 C 77.03125 -107.265625 77.234375 -107.007812 77.234375 -106.5 L 77.234375 -32.484375 C 77.234375 -31.867188 77.234375 -31.304688 77.234375 -30.796875 C 77.128906 -30.285156 77.078125 -29.722656 77.078125 -29.109375 C 76.972656 -28.597656 76.867188 -28.085938 76.765625 -27.578125 C 75.953125 -22.160156 74.007812 -17.332031 70.9375 -13.09375 C 67.875 -8.863281 63.992188 -5.519531 59.296875 -3.0625 C 54.597656 -0.613281 49.539062 0.609375 44.125 0.609375 C 38 0.609375 32.429688 -0.867188 27.421875 -3.828125 C 22.421875 -6.796875 18.4375 -10.78125 15.46875 -15.78125 C 12.507812 -20.789062 11.03125 -26.359375 11.03125 -32.484375 L 11.03125 -106.5 C 11.03125 -107.007812 11.234375 -107.265625 11.640625 -107.265625 L 14.703125 -107.265625 C 15.117188 -107.265625 15.328125 -107.007812 15.328125 -106.5 L 15.328125 -32.484375 C 15.328125 -26.867188 16.675781 -21.757812 19.375 -17.15625 C 22.082031 -12.5625 25.734375 -8.910156 30.328125 -6.203125 C 34.929688 -3.492188 40.039062 -2.140625 45.65625 -2.140625 C 50.5625 -2.140625 55.160156 -3.265625 59.453125 -5.515625 C 63.742188 -7.765625 67.289062 -10.800781 70.09375 -14.625 C 72.90625 -18.457031 74.722656 -22.878906 75.546875 -27.890625 C 75.648438 -28.296875 75.703125 -28.703125 75.703125 -29.109375 C 75.703125 -29.210938 75.703125 -29.265625 75.703125 -29.265625 C 75.796875 -29.773438 75.84375 -30.285156 75.84375 -30.796875 C 75.84375 -31.410156 75.84375 -31.972656 75.84375 -32.484375 L 75.84375 -106.5 C 75.84375 -107.007812 76.101562 -107.265625 76.625 -107.265625 Z M 76.625 -107.265625 "/></g></g></g><g fill="#F5F0E8" fill-opacity="1"><g transform="translate(521.720682, 395.819506)"><g><path d="M 88.421875 -106.953125 C 95.265625 -97.554688 98.6875 -87.085938 98.6875 -75.546875 C 98.6875 -68.390625 97.359375 -61.644531 94.703125 -55.3125 C 92.046875 -48.976562 88.34375 -43.359375 83.59375 -38.453125 C 78.84375 -33.554688 73.320312 -29.625 67.03125 -26.65625 C 60.75 -23.695312 53.984375 -22.066406 46.734375 -21.765625 L 46.578125 -21.765625 C 46.484375 -21.765625 46.078125 -21.765625 45.359375 -21.765625 C 45.359375 -21.765625 45.304688 -21.710938 45.203125 -21.609375 L 12.109375 -21.609375 C 11.703125 -21.609375 11.5 -21.863281 11.5 -22.375 L 11.5 -106.5 C 11.5 -107.007812 11.703125 -107.265625 12.109375 -107.265625 L 15.171875 -107.265625 C 15.578125 -107.265625 15.78125 -107.007812 15.78125 -106.5 L 15.78125 -22.984375 L 43.828125 -22.984375 C 44.023438 -22.984375 44.484375 -22.984375 45.203125 -22.984375 C 46.023438 -22.984375 46.484375 -22.984375 46.578125 -22.984375 C 53.222656 -23.390625 59.40625 -25.019531 65.125 -27.875 C 70.84375 -30.738281 75.875 -34.570312 80.21875 -39.375 C 84.5625 -44.175781 87.929688 -49.664062 90.328125 -55.84375 C 92.734375 -62.03125 93.9375 -68.597656 93.9375 -75.546875 C 93.9375 -86.785156 90.816406 -97 84.578125 -106.1875 C 84.484375 -106.394531 84.484375 -106.597656 84.578125 -106.796875 C 84.679688 -107.109375 84.890625 -107.265625 85.203125 -107.265625 L 87.953125 -107.265625 C 88.160156 -107.265625 88.316406 -107.160156 88.421875 -106.953125 Z M 46.734375 -15.171875 C 60.117188 -14.453125 71.710938 -9.546875 81.515625 -0.453125 C 81.722656 -0.253906 81.773438 0 81.671875 0.3125 C 81.566406 0.507812 81.363281 0.609375 81.0625 0.609375 L 78.765625 0.609375 C 78.554688 0.609375 78.398438 0.554688 78.296875 0.453125 C 69.515625 -8.328125 58.941406 -13.078125 46.578125 -13.796875 C 46.484375 -13.796875 46.023438 -13.84375 45.203125 -13.9375 C 44.484375 -13.9375 44.023438 -13.9375 43.828125 -13.9375 L 15.78125 -13.9375 L 15.78125 0 C 15.78125 0.40625 15.578125 0.609375 15.171875 0.609375 L 12.109375 0.609375 C 11.703125 0.609375 11.5 0.40625 11.5 0 L 11.5 -14.5625 C 11.5 -14.96875 11.703125 -15.171875 12.109375 -15.171875 L 45.203125 -15.171875 C 45.304688 -15.171875 45.359375 -15.171875 45.359375 -15.171875 C 46.078125 -15.171875 46.484375 -15.171875 46.578125 -15.171875 Z M 46.734375 -15.171875 "/></g></g></g><g fill="#F5F0E8" fill-opacity="1"><g transform="translate(615.345863, 395.819506)"><g><path d="M 15.9375 0.609375 C 15.726562 0.609375 15.0625 0.609375 13.9375 0.609375 C 12.820312 0.609375 12.265625 0.609375 12.265625 0.609375 L 12.265625 -107.265625 C 12.265625 -107.265625 12.3125 -107.265625 12.40625 -107.265625 C 12.507812 -107.265625 12.664062 -107.265625 12.875 -107.265625 C 13.070312 -107.265625 13.734375 -107.265625 14.859375 -107.265625 C 15.984375 -107.265625 16.546875 -107.265625 16.546875 -107.265625 L 16.546875 0.609375 C 16.546875 0.609375 16.492188 0.609375 16.390625 0.609375 C 16.296875 0.609375 16.144531 0.609375 15.9375 0.609375 Z M 15.9375 0.609375 "/></g></g></g><g fill="#F5F0E8" fill-opacity="1"><g transform="translate(632.814104, 395.819506)"><g><path d="M 63.90625 -76.625 C 71.15625 -76.3125 77.945312 -74.644531 84.28125 -71.625 C 90.613281 -68.613281 96.128906 -64.628906 100.828125 -59.671875 C 105.523438 -54.722656 109.203125 -49.003906 111.859375 -42.515625 C 114.515625 -36.035156 115.84375 -29.164062 115.84375 -21.90625 C 115.945312 -14.144531 114.414062 -6.738281 111.25 0.3125 C 111.144531 0.507812 110.941406 0.609375 110.640625 0.609375 L 107.578125 0.609375 C 107.472656 0.609375 107.367188 0.609375 107.265625 0.609375 C 107.160156 0.609375 107.109375 0.554688 107.109375 0.453125 C 107.109375 0.453125 107.054688 0.453125 106.953125 0.453125 C 106.953125 0.359375 106.953125 0.3125 106.953125 0.3125 C 106.953125 0.40625 106.953125 0.40625 106.953125 0.3125 C 106.953125 0.3125 106.898438 0.257812 106.796875 0.15625 C 106.796875 0.0507812 106.796875 0 106.796875 0 C 106.796875 -0.101562 106.847656 -0.207031 106.953125 -0.3125 C 109.816406 -7.15625 111.195312 -14.351562 111.09375 -21.90625 C 111.09375 -28.957031 109.890625 -35.625 107.484375 -41.90625 C 105.085938 -48.1875 101.742188 -53.78125 97.453125 -58.6875 C 93.160156 -63.59375 88.128906 -67.5 82.359375 -70.40625 C 76.585938 -73.320312 70.382812 -74.984375 63.75 -75.390625 L 58.375 -75.390625 C 57.863281 -75.285156 57.457031 -75.234375 57.15625 -75.234375 L 55.9375 -75.078125 C 55.113281 -74.984375 54.296875 -74.882812 53.484375 -74.78125 C 52.765625 -74.675781 52 -74.519531 51.1875 -74.3125 C 51.082031 -74.3125 51.03125 -74.3125 51.03125 -74.3125 C 49.394531 -73.90625 47.863281 -73.5 46.4375 -73.09375 C 45.71875 -72.882812 44.945312 -72.578125 44.125 -72.171875 C 43.71875 -72.066406 43.3125 -71.9375 42.90625 -71.78125 C 42.5 -71.632812 42.140625 -71.457031 41.828125 -71.25 C 41.015625 -70.84375 40.300781 -70.488281 39.6875 -70.1875 C 38.664062 -69.769531 37.539062 -69.15625 36.3125 -68.34375 L 35.390625 -67.890625 C 35.191406 -67.679688 34.835938 -67.421875 34.328125 -67.109375 C 34.117188 -66.910156 33.8125 -66.707031 33.40625 -66.5 C 31.050781 -64.769531 28.851562 -62.878906 26.8125 -60.828125 C 26.507812 -60.523438 26.253906 -60.320312 26.046875 -60.21875 C 25.335938 -59.40625 24.675781 -58.640625 24.0625 -57.921875 C 23.75 -57.515625 23.492188 -57.15625 23.296875 -56.84375 C 23.296875 -56.84375 23.242188 -56.84375 23.140625 -56.84375 C 22.929688 -56.539062 22.773438 -56.285156 22.671875 -56.078125 L 22.53125 -56.078125 C 22.53125 -55.984375 22.476562 -55.882812 22.375 -55.78125 L 21.765625 -55.015625 C 20.835938 -53.785156 19.914062 -52.457031 19 -51.03125 C 18.789062 -50.625 18.582031 -50.238281 18.375 -49.875 C 18.175781 -49.519531 17.976562 -49.1875 17.78125 -48.875 C 17.164062 -47.757812 16.601562 -46.640625 16.09375 -45.515625 C 15.582031 -44.285156 15.070312 -43.054688 14.5625 -41.828125 L 14.25 -40.90625 C 14.144531 -40.601562 14.039062 -40.195312 13.9375 -39.6875 C 13.738281 -39.28125 13.640625 -38.972656 13.640625 -38.765625 C 13.535156 -38.660156 13.484375 -38.507812 13.484375 -38.3125 L 13.328125 -38 C 13.222656 -37.59375 13.117188 -37.207031 13.015625 -36.84375 C 12.921875 -36.488281 12.820312 -36.160156 12.71875 -35.859375 C 12.507812 -35.140625 12.359375 -34.375 12.265625 -33.5625 C 12.160156 -33.457031 12.054688 -33.097656 11.953125 -32.484375 L 11.953125 -32.328125 C 11.742188 -30.898438 11.539062 -29.625 11.34375 -28.5 C 11.238281 -27.6875 11.1875 -26.816406 11.1875 -25.890625 C 11.082031 -24.460938 11.03125 -23.132812 11.03125 -21.90625 C 11.03125 -20.582031 11.082031 -19.207031 11.1875 -17.78125 C 11.1875 -16.957031 11.238281 -16.140625 11.34375 -15.328125 C 11.445312 -15.015625 11.5 -14.707031 11.5 -14.40625 C 11.59375 -13.488281 11.742188 -12.519531 11.953125 -11.5 L 11.953125 -11.34375 C 12.054688 -10.832031 12.160156 -10.472656 12.265625 -10.265625 C 12.460938 -9.347656 12.613281 -8.582031 12.71875 -7.96875 C 12.820312 -7.664062 12.921875 -7.332031 13.015625 -6.96875 C 13.117188 -6.613281 13.222656 -6.234375 13.328125 -5.828125 L 13.484375 -5.515625 C 13.484375 -5.210938 13.535156 -5.0625 13.640625 -5.0625 C 13.640625 -4.75 13.738281 -4.390625 13.9375 -3.984375 C 14.039062 -3.679688 14.144531 -3.320312 14.25 -2.90625 L 14.5625 -1.84375 C 14.757812 -1.332031 15.015625 -0.820312 15.328125 -0.3125 C 15.328125 -0.207031 15.328125 -0.101562 15.328125 0 C 15.328125 0.101562 15.328125 0.15625 15.328125 0.15625 C 15.328125 0.15625 15.273438 0.207031 15.171875 0.3125 C 15.171875 0.40625 15.171875 0.40625 15.171875 0.3125 C 15.273438 0.3125 15.273438 0.359375 15.171875 0.453125 C 15.171875 0.453125 15.117188 0.453125 15.015625 0.453125 C 14.910156 0.554688 14.910156 0.609375 15.015625 0.609375 C 14.910156 0.609375 14.859375 0.609375 14.859375 0.609375 C 14.859375 0.609375 14.804688 0.609375 14.703125 0.609375 L 11.5 0.609375 C 11.289062 0.609375 11.082031 0.507812 10.875 0.3125 C 7.8125 -6.738281 6.28125 -14.144531 6.28125 -21.90625 C 6.28125 -29.164062 7.609375 -36.007812 10.265625 -42.4375 C 12.921875 -48.875 16.597656 -54.59375 21.296875 -59.59375 C 25.992188 -64.601562 31.507812 -68.585938 37.84375 -71.546875 C 44.175781 -74.515625 50.972656 -76.207031 58.234375 -76.625 L 61.140625 -76.765625 Z M 55.46875 -83.515625 C 47.601562 -84.222656 40.273438 -86.566406 33.484375 -90.546875 C 26.691406 -94.535156 21.046875 -99.695312 16.546875 -106.03125 C 16.347656 -106.238281 16.296875 -106.492188 16.390625 -106.796875 C 16.492188 -107.003906 16.703125 -107.109375 17.015625 -107.109375 L 19.609375 -107.109375 C 19.816406 -107.109375 20.023438 -107.054688 20.234375 -106.953125 C 20.234375 -106.953125 20.234375 -106.898438 20.234375 -106.796875 C 20.328125 -106.796875 20.375 -106.796875 20.375 -106.796875 C 20.582031 -106.492188 20.789062 -106.191406 21 -105.890625 C 21.195312 -105.578125 21.453125 -105.21875 21.765625 -104.8125 L 22.53125 -103.890625 C 22.625 -103.691406 22.722656 -103.515625 22.828125 -103.359375 C 22.929688 -103.203125 23.085938 -103.070312 23.296875 -102.96875 C 23.390625 -102.664062 23.644531 -102.359375 24.0625 -102.046875 C 24.257812 -101.742188 24.460938 -101.441406 24.671875 -101.140625 C 24.773438 -101.140625 24.851562 -101.085938 24.90625 -100.984375 C 24.957031 -100.878906 24.984375 -100.828125 24.984375 -100.828125 C 25.285156 -100.421875 25.640625 -100.0625 26.046875 -99.75 C 26.253906 -99.550781 26.507812 -99.296875 26.8125 -98.984375 C 27.019531 -98.679688 27.25 -98.425781 27.5 -98.21875 C 27.757812 -98.019531 28.039062 -97.765625 28.34375 -97.453125 C 28.550781 -97.253906 28.757812 -97.050781 28.96875 -96.84375 C 29.988281 -95.925781 30.90625 -95.160156 31.71875 -94.546875 C 32.125 -94.242188 32.484375 -93.988281 32.796875 -93.78125 C 33.710938 -93.164062 34.679688 -92.5 35.703125 -91.78125 C 35.910156 -91.6875 36.085938 -91.585938 36.234375 -91.484375 C 36.390625 -91.378906 36.570312 -91.273438 36.78125 -91.171875 C 36.976562 -91.066406 37.285156 -90.863281 37.703125 -90.5625 C 38.109375 -90.351562 38.460938 -90.203125 38.765625 -90.109375 L 38.765625 -89.953125 C 39.484375 -89.640625 40.148438 -89.332031 40.765625 -89.03125 C 40.859375 -89.03125 40.90625 -88.976562 40.90625 -88.875 C 41.21875 -88.769531 41.550781 -88.640625 41.90625 -88.484375 C 42.269531 -88.335938 42.601562 -88.210938 42.90625 -88.109375 C 43.820312 -87.703125 44.640625 -87.394531 45.359375 -87.1875 C 46.171875 -86.882812 46.882812 -86.628906 47.5 -86.421875 C 48.414062 -86.117188 49.234375 -85.863281 49.953125 -85.65625 C 50.359375 -85.65625 50.71875 -85.601562 51.03125 -85.5 C 51.644531 -85.40625 52.460938 -85.253906 53.484375 -85.046875 C 54.191406 -84.941406 55.007812 -84.835938 55.9375 -84.734375 L 56.234375 -84.734375 C 56.546875 -84.628906 56.800781 -84.578125 57 -84.578125 L 57.46875 -84.578125 C 57.769531 -84.578125 58.070312 -84.53125 58.375 -84.4375 L 63.90625 -84.4375 C 71.050781 -84.945312 77.789062 -86.9375 84.125 -90.40625 C 90.457031 -93.882812 95.769531 -98.535156 100.0625 -104.359375 C 100.675781 -105.171875 101.238281 -105.984375 101.75 -106.796875 C 101.851562 -106.898438 101.953125 -106.953125 102.046875 -106.953125 C 102.046875 -107.054688 102.046875 -107.109375 102.046875 -107.109375 C 102.148438 -107.109375 102.253906 -107.109375 102.359375 -107.109375 C 102.460938 -107.109375 102.460938 -107.109375 102.359375 -107.109375 L 105.125 -107.109375 C 105.425781 -107.109375 105.628906 -107.003906 105.734375 -106.796875 C 105.835938 -106.492188 105.835938 -106.238281 105.734375 -106.03125 C 100.828125 -99.289062 94.722656 -93.898438 87.421875 -89.859375 C 80.117188 -85.828125 72.28125 -83.609375 63.90625 -83.203125 L 61.140625 -83.046875 L 58.234375 -83.203125 C 58.128906 -83.203125 57.972656 -83.203125 57.765625 -83.203125 C 57.566406 -83.203125 57.363281 -83.253906 57.15625 -83.359375 C 56.945312 -83.359375 56.640625 -83.359375 56.234375 -83.359375 L 55.78125 -83.359375 C 55.78125 -83.359375 55.753906 -83.382812 55.703125 -83.4375 C 55.648438 -83.488281 55.570312 -83.515625 55.46875 -83.515625 Z M 55.46875 -83.515625 "/></g></g></g></g></g><g mask="url(#6624b9a284)"><g transform="matrix(1, 0, 0, 1, 944, 604)"><g clip-path="url(#f276e21d72)"><path fill="#F5F0E8" d="M 143.503906 24.21875 C 144.027344 24.796875 143.503906 25.039062 143.226562 25.320312 C 138.578125 29.984375 133.921875 34.644531 129.269531 39.300781 C 126.675781 41.894531 124.078125 44.480469 121.488281 47.070312 C 121.3125 47.246094 121.050781 47.417969 121.007812 47.628906 C 120.71875 48.988281 119.625 49.730469 118.738281 50.617188 C 95.394531 73.972656 72.039062 97.316406 48.6875 120.664062 C 48.222656 121.132812 47.761719 121.566406 47.074219 121.695312 C 46.617188 121.78125 46.363281 122.183594 46.0625 122.484375 C 38.964844 129.578125 31.875 136.679688 24.78125 143.773438 C 23.964844 144.59375 23.871094 144.554688 23.097656 143.753906 C 22.503906 143.136719 22.894531 142.792969 23.308594 142.378906 C 30.210938 135.484375 37.109375 128.585938 44.007812 121.691406 C 44.707031 120.996094 45.464844 120.363281 45.71875 119.320312 C 45.835938 118.839844 46.292969 118.519531 46.640625 118.167969 C 58.726562 106.09375 70.808594 94.015625 82.894531 81.9375 C 90.121094 74.714844 97.347656 67.488281 104.578125 60.265625 C 108.929688 55.921875 113.292969 51.589844 117.652344 47.253906 C 118.09375 46.808594 118.550781 46.394531 119.203125 46.28125 C 119.636719 46.207031 119.867188 45.84375 120.148438 45.5625 C 127.269531 38.449219 134.386719 31.332031 141.503906 24.21875 C 142.453125 23.269531 142.457031 23.269531 143.503906 24.21875 Z M 143.503906 24.21875 " fill-opacity="1" fill-rule="nonzero"/><path fill="#F5F0E8" d="M 128.726562 47.527344 C 127.777344 48.476562 126.875 49.375 125.976562 50.273438 C 125.414062 50.839844 124.796875 51.339844 124.640625 52.222656 C 124.558594 52.703125 124.101562 53.039062 123.75 53.390625 C 100.191406 76.9375 76.636719 100.484375 53.082031 124.03125 C 52.453125 124.664062 51.894531 125.382812 50.890625 125.503906 C 50.632812 125.535156 50.394531 125.851562 50.175781 126.070312 C 42.992188 133.25 35.8125 140.4375 28.632812 147.625 C 27.914062 148.339844 26.972656 148.148438 26.632812 147.210938 C 26.464844 146.738281 26.863281 146.535156 27.109375 146.289062 C 30.023438 143.359375 32.949219 140.441406 35.875 137.523438 C 40.117188 133.285156 44.355469 129.046875 48.601562 124.8125 C 49.042969 124.371094 49.460938 123.9375 49.609375 123.285156 C 49.714844 122.824219 50.09375 122.5 50.425781 122.171875 C 64.726562 107.867188 79.023438 93.5625 93.328125 79.265625 C 102.6875 69.90625 112.054688 60.558594 121.410156 51.199219 C 121.921875 50.6875 122.441406 50.210938 123.175781 50.042969 C 123.523438 49.964844 123.773438 49.71875 124.015625 49.476562 C 128.96875 44.503906 133.914062 39.523438 138.875 34.558594 C 141.15625 32.269531 143.46875 30.015625 145.746094 27.726562 C 146.222656 27.242188 146.570312 27.203125 147.042969 27.726562 C 147.492188 28.226562 147.722656 28.574219 147.113281 29.179688 C 140.984375 35.265625 134.882812 41.375 128.726562 47.527344 Z M 128.726562 47.527344 " fill-opacity="1" fill-rule="nonzero"/><path fill="#F5F0E8" d="M 40.605469 143.410156 C 38.011719 146.003906 35.460938 148.550781 32.917969 151.101562 C 32.003906 152.015625 31.972656 151.988281 31.035156 151.214844 C 30.421875 150.703125 30.757812 150.398438 31.132812 150.023438 C 33.90625 147.261719 36.679688 144.496094 39.445312 141.730469 C 43.996094 137.183594 48.539062 132.632812 53.089844 128.089844 C 53.402344 127.777344 53.671875 127.457031 53.773438 127.007812 C 53.910156 126.40625 54.320312 125.972656 54.742188 125.550781 C 65.429688 114.886719 76.121094 104.222656 86.800781 93.550781 C 93.324219 87.027344 99.824219 80.484375 106.351562 73.964844 C 112.660156 67.664062 118.988281 61.382812 125.300781 55.085938 C 125.746094 54.640625 126.191406 54.226562 126.847656 54.117188 C 127.242188 54.054688 127.472656 53.726562 127.730469 53.46875 C 134.894531 46.304688 142.050781 39.140625 149.21875 31.984375 C 149.484375 31.71875 149.703125 31.183594 150.167969 31.394531 C 150.605469 31.597656 150.925781 32.046875 151.128906 32.496094 C 151.308594 32.894531 150.910156 33.101562 150.679688 33.332031 C 147.570312 36.460938 144.453125 39.582031 141.335938 42.703125 C 137.335938 46.699219 133.332031 50.691406 129.328125 54.683594 C 128.90625 55.101562 128.515625 55.511719 128.394531 56.140625 C 128.289062 56.679688 127.820312 57.015625 127.449219 57.386719 C 118.046875 66.789062 108.636719 76.1875 99.234375 85.585938 C 85.105469 99.710938 70.976562 113.835938 56.851562 127.960938 C 56.429688 128.386719 56.019531 128.792969 55.390625 128.890625 C 55 128.953125 54.75 129.257812 54.488281 129.519531 C 49.875 134.132812 45.265625 138.75 40.605469 143.410156 Z M 40.605469 143.410156 " fill-opacity="1" fill-rule="nonzero"/><path fill="#F5F0E8" d="M 19.289062 139.320312 C 18.980469 138.8125 19.34375 138.585938 19.597656 138.328125 C 26.410156 131.523438 33.230469 124.726562 40.027344 117.90625 C 40.90625 117.023438 42.007812 116.304688 42.320312 114.949219 C 42.394531 114.625 42.757812 114.359375 43.019531 114.09375 C 61.320312 95.804688 79.621094 77.515625 97.921875 59.226562 C 103.066406 54.085938 108.207031 48.953125 113.347656 43.8125 C 113.769531 43.390625 114.183594 42.996094 114.808594 42.882812 C 115.289062 42.792969 115.601562 42.398438 115.925781 42.074219 C 122.867188 35.132812 129.800781 28.1875 136.734375 21.242188 C 137.085938 20.890625 137.464844 20.566406 137.800781 20.203125 C 138.140625 19.84375 138.4375 19.816406 138.847656 20.117188 C 139.804688 20.808594 139.835938 20.964844 139.003906 21.796875 C 131.820312 28.980469 124.636719 36.160156 117.449219 43.335938 C 117.011719 43.773438 116.578125 44.183594 116.480469 44.867188 C 116.410156 45.367188 115.972656 45.703125 115.617188 46.054688 C 103.578125 58.085938 91.539062 70.121094 79.5 82.152344 C 68.054688 93.59375 56.609375 105.035156 45.171875 116.480469 C 44.722656 116.925781 44.289062 117.339844 43.613281 117.414062 C 43.144531 117.46875 42.894531 117.878906 42.589844 118.183594 C 35.496094 125.277344 28.40625 132.375 21.3125 139.46875 C 20.25 140.535156 20.246094 140.53125 19.289062 139.320312 Z M 19.289062 139.320312 " fill-opacity="1" fill-rule="nonzero"/><path fill="#F5F0E8" d="M 59.402344 128.664062 C 68.71875 119.347656 77.984375 110.078125 87.257812 100.808594 C 100.589844 87.476562 113.921875 74.148438 127.261719 60.820312 C 128 60.085938 128.699219 59.351562 129.78125 58.984375 C 130.445312 58.757812 130.929688 57.980469 131.476562 57.429688 C 138.546875 50.359375 145.617188 43.285156 152.691406 36.21875 C 152.988281 35.921875 153.253906 35.363281 153.820312 35.894531 C 154.570312 36.601562 154.648438 37.078125 154.0625 37.664062 C 146.945312 44.785156 139.828125 51.898438 132.710938 59.015625 C 132.015625 59.710938 131.234375 60.328125 131.003906 61.390625 C 130.898438 61.871094 130.425781 62.183594 130.078125 62.535156 C 107.25 85.351562 84.425781 108.167969 61.597656 130.984375 C 61.402344 131.179688 61.1875 131.453125 60.949219 131.496094 C 59.738281 131.707031 59.070312 132.644531 58.292969 133.421875 C 51.214844 140.492188 44.148438 147.570312 37.078125 154.644531 C 36.484375 155.242188 35.375 155.039062 35.039062 154.261719 C 34.839844 153.796875 35.265625 153.597656 35.511719 153.351562 C 37.921875 150.929688 40.339844 148.515625 42.757812 146.101562 C 47.65625 141.203125 52.53125 136.28125 57.484375 131.441406 C 58.324219 130.621094 58.574219 129.507812 59.402344 128.664062 Z M 59.402344 128.664062 " fill-opacity="1" fill-rule="nonzero"/><path fill="#F5F0E8" d="M 15.8125 134.546875 C 18.0625 132.210938 20.296875 129.921875 22.554688 127.660156 C 27.820312 122.386719 33.101562 117.125 38.382812 111.859375 C 38.757812 111.484375 39.074219 111.097656 39.214844 110.554688 C 39.367188 109.972656 39.808594 109.542969 40.226562 109.125 C 49.089844 100.28125 57.953125 91.441406 66.804688 82.59375 C 71.355469 78.050781 75.878906 73.480469 80.429688 68.9375 C 89.949219 59.441406 99.476562 49.953125 109 40.457031 C 109.398438 40.058594 109.800781 39.675781 110.386719 39.574219 C 110.890625 39.488281 111.167969 39.089844 111.492188 38.765625 C 118.457031 31.800781 125.417969 24.835938 132.378906 17.875 C 132.644531 17.609375 132.910156 17.351562 133.175781 17.089844 C 133.871094 16.417969 134.691406 16.519531 135.222656 17.339844 C 135.535156 17.820312 135.085938 18.015625 134.851562 18.25 C 131.765625 21.355469 128.667969 24.449219 125.570312 27.546875 C 121.285156 31.828125 116.988281 36.097656 112.722656 40.398438 C 111.890625 41.242188 111.539062 42.425781 110.65625 43.304688 C 98.40625 55.476562 86.199219 67.691406 73.984375 79.898438 C 63.351562 90.527344 52.722656 101.160156 42.089844 111.789062 C 41.917969 111.960938 41.742188 112.210938 41.53125 112.265625 C 40.09375 112.617188 39.3125 113.800781 38.363281 114.75 C 31.5625 121.523438 24.78125 128.316406 17.996094 135.101562 C 16.777344 136.316406 16.535156 136.257812 15.8125 134.546875 Z M 15.8125 134.546875 " fill-opacity="1" fill-rule="nonzero"/><path fill="#F5F0E8" d="M 105.898438 36.648438 C 113.5 29.042969 121.054688 21.488281 128.609375 13.9375 C 129.171875 13.375 130.335938 13.550781 130.699219 14.257812 C 130.921875 14.6875 130.523438 14.875 130.304688 15.09375 C 127.746094 17.675781 125.179688 20.25 122.605469 22.816406 C 117.566406 27.835938 112.523438 32.847656 107.472656 37.859375 C 107.113281 38.214844 106.800781 38.578125 106.703125 39.097656 C 106.605469 39.609375 106.25 39.964844 105.894531 40.320312 C 91.085938 55.117188 76.277344 69.917969 61.46875 84.71875 C 54.175781 92.007812 46.882812 99.300781 39.59375 106.59375 C 39.128906 107.0625 38.675781 107.5 37.964844 107.589844 C 37.546875 107.644531 37.296875 108.019531 37.011719 108.300781 C 29.527344 115.796875 22.046875 123.292969 14.554688 130.78125 C 14.261719 131.074219 14.011719 131.785156 13.394531 131.144531 C 12.644531 130.371094 12.582031 129.867188 13.1875 129.261719 C 20.21875 122.234375 27.257812 115.21875 34.277344 108.183594 C 35.207031 107.25 36.3125 106.453125 36.714844 105.078125 C 36.8125 104.753906 37.171875 104.5 37.433594 104.238281 C 59.464844 82.210938 81.503906 60.191406 103.515625 38.140625 C 104.214844 37.441406 105.195312 37.367188 105.898438 36.648438 Z M 105.898438 36.648438 " fill-opacity="1" fill-rule="nonzero"/><path fill="#F5F0E8" d="M 123.765625 72.023438 C 126.054688 69.734375 128.292969 67.496094 130.535156 65.253906 C 131.023438 64.765625 131.527344 64.3125 132.238281 64.175781 C 132.664062 64.09375 132.914062 63.746094 133.195312 63.464844 C 140.667969 55.996094 148.132812 48.523438 155.621094 41.074219 C 155.9375 40.761719 156.183594 39.871094 156.902344 40.476562 C 157.734375 41.175781 157.703125 41.792969 156.925781 42.574219 C 149.457031 50.042969 141.988281 57.507812 134.515625 64.976562 C 134.230469 65.261719 133.925781 65.527344 133.855469 65.960938 C 133.765625 66.511719 133.410156 66.902344 133.03125 67.28125 C 110.902344 89.394531 88.773438 111.515625 66.648438 133.632812 C 66.273438 134.011719 65.898438 134.378906 65.332031 134.449219 C 64.820312 134.515625 64.539062 134.917969 64.214844 135.242188 C 56.769531 142.691406 49.332031 150.144531 41.882812 157.589844 C 41.574219 157.898438 41.335938 158.363281 40.726562 158.144531 C 39.476562 157.691406 39.375 157.246094 40.316406 156.308594 C 47.8125 148.824219 55.304688 141.332031 62.800781 133.847656 C 63.203125 133.449219 63.535156 133.027344 63.695312 132.460938 C 63.859375 131.878906 64.292969 131.457031 64.714844 131.035156 C 84.382812 111.382812 104.050781 91.726562 123.765625 72.023438 Z M 123.765625 72.023438 " fill-opacity="1" fill-rule="nonzero"/><path fill="#F5F0E8" d="M 157.058594 50.132812 C 150.289062 56.898438 143.566406 63.617188 136.84375 70.339844 C 136.339844 70.84375 135.820312 71.3125 135.699219 72.089844 C 135.636719 72.484375 135.300781 72.777344 135.011719 73.066406 C 122.222656 85.84375 109.4375 98.621094 96.652344 111.398438 C 90.65625 117.390625 84.65625 123.382812 78.664062 129.375 C 76.640625 131.394531 74.625 133.417969 72.609375 135.441406 C 72.144531 135.910156 71.667969 136.339844 70.972656 136.4375 C 70.542969 136.496094 70.308594 136.878906 70.027344 137.160156 C 62.363281 144.824219 54.699219 152.492188 47.039062 160.160156 C 45.910156 161.289062 45.71875 161.28125 44.449219 160.148438 C 44.496094 159.671875 44.90625 159.441406 45.199219 159.144531 C 52.945312 151.386719 60.699219 143.636719 68.457031 135.886719 C 68.941406 135.402344 69.421875 134.941406 69.570312 134.214844 C 69.652344 133.820312 69.980469 133.53125 70.269531 133.246094 C 85.320312 118.207031 100.371094 103.167969 115.421875 88.128906 C 121.113281 82.441406 126.804688 76.757812 132.492188 71.066406 C 133 70.558594 133.484375 70.050781 134.246094 69.914062 C 134.660156 69.84375 134.894531 69.453125 135.179688 69.167969 C 142.976562 61.375 150.769531 53.574219 158.582031 45.792969 C 158.867188 45.511719 159.101562 44.742188 159.734375 45.324219 C 160.410156 45.941406 160.464844 46.710938 159.933594 47.25 C 159 48.203125 158.046875 49.140625 157.058594 50.132812 Z M 157.058594 50.132812 " fill-opacity="1" fill-rule="nonzero"/><path fill="#F5F0E8" d="M 14.488281 120.273438 C 20.90625 113.859375 27.277344 107.488281 33.652344 101.125 C 34.050781 100.726562 34.410156 100.335938 34.554688 99.75 C 34.699219 99.167969 35.152344 98.746094 35.570312 98.324219 C 41.398438 92.511719 47.222656 86.699219 53.046875 80.882812 C 63.597656 70.351562 74.148438 59.820312 84.699219 49.289062 C 88.898438 45.097656 93.136719 40.9375 97.257812 36.671875 C 98.234375 35.660156 99.546875 35.246094 100.503906 34.289062 C 108.082031 26.710938 115.664062 19.128906 123.238281 11.550781 C 124.425781 10.359375 124.53125 10.351562 125.886719 11.503906 C 125.925781 11.875 125.609375 12.03125 125.402344 12.238281 C 117.734375 19.902344 110.066406 27.5625 102.394531 35.226562 C 101.804688 35.816406 101.171875 36.351562 100.984375 37.246094 C 100.914062 37.570312 100.570312 37.855469 100.308594 38.117188 C 87.71875 50.703125 75.125 63.28125 62.535156 75.863281 C 54.230469 84.164062 45.929688 92.476562 37.632812 100.785156 C 37.171875 101.246094 36.746094 101.726562 36.019531 101.800781 C 35.632812 101.839844 35.410156 102.207031 35.148438 102.46875 C 27.328125 110.289062 19.511719 118.109375 11.6875 125.925781 C 11.453125 126.164062 11.273438 126.480469 10.902344 126.542969 C 9.761719 125.535156 9.730469 125.027344 10.746094 124.007812 C 11.976562 122.773438 13.207031 121.546875 14.488281 120.273438 Z M 14.488281 120.273438 " fill-opacity="1" fill-rule="nonzero"/><path fill="#F5F0E8" d="M 8.5625 118.457031 C 13.53125 113.488281 18.449219 108.566406 23.371094 103.652344 C 26.363281 100.667969 29.359375 97.691406 32.34375 94.703125 C 32.738281 94.3125 33.078125 93.890625 33.21875 93.308594 C 33.367188 92.683594 33.894531 92.285156 34.335938 91.847656 C 51.339844 74.851562 68.347656 57.855469 85.355469 40.859375 C 87.441406 38.773438 89.53125 36.691406 91.613281 34.597656 C 92.039062 34.171875 92.484375 33.804688 93.09375 33.679688 C 93.550781 33.589844 93.832031 33.238281 94.132812 32.933594 C 98.1875 28.859375 102.226562 24.777344 106.289062 20.714844 C 110.222656 16.78125 114.175781 12.875 118.117188 8.953125 C 119.152344 7.921875 119.523438 7.921875 120.757812 8.941406 C 120.699219 9.382812 120.328125 9.605469 120.054688 9.882812 C 111.835938 18.089844 103.609375 26.292969 95.390625 34.5 C 95.214844 34.675781 94.96875 34.859375 94.929688 35.070312 C 94.675781 36.375 93.652344 37.089844 92.808594 37.9375 C 74.664062 56.082031 56.519531 74.21875 38.371094 92.359375 C 37.582031 93.152344 36.785156 93.9375 35.988281 94.722656 C 35.859375 94.851562 35.734375 95.035156 35.570312 95.085938 C 33.441406 95.734375 32.316406 97.601562 30.867188 99.035156 C 23.628906 106.203125 16.453125 113.4375 9.257812 120.644531 C 8.976562 120.925781 8.675781 121.191406 8.390625 121.457031 C 7.1875 120.398438 7.230469 119.738281 8.5625 118.457031 Z M 8.5625 118.457031 " fill-opacity="1" fill-rule="nonzero"/><path fill="#F5F0E8" d="M 110.625 105.113281 C 99.925781 115.816406 89.269531 126.46875 78.621094 137.128906 C 78.261719 137.488281 77.886719 137.804688 77.375 137.890625 C 76.835938 137.984375 76.53125 138.40625 76.1875 138.75 C 72.050781 142.871094 67.929688 147.003906 63.800781 151.132812 C 59.828125 155.109375 55.859375 159.089844 51.878906 163.0625 C 51.207031 163.734375 50.851562 163.683594 49.605469 162.792969 C 49.589844 162.339844 49.949219 162.09375 50.222656 161.824219 C 58.421875 153.636719 66.628906 145.457031 74.835938 137.277344 C 75.230469 136.882812 75.578125 136.484375 75.722656 135.894531 C 75.878906 135.246094 76.410156 134.800781 76.871094 134.339844 C 84.34375 126.875 91.816406 119.410156 99.285156 111.945312 C 110.578125 100.65625 121.867188 89.363281 133.164062 78.078125 C 133.925781 77.316406 134.613281 76.457031 135.773438 76.214844 C 136.066406 76.15625 136.308594 75.8125 136.550781 75.570312 C 144.726562 67.40625 152.898438 59.234375 161.074219 51.066406 C 161.375 50.769531 161.621094 50.386719 162.074219 50.277344 C 163.113281 51.480469 163.113281 51.839844 162.058594 52.894531 C 154.039062 60.910156 146.023438 68.929688 138.003906 76.941406 C 137.582031 77.363281 137.175781 77.765625 137.0625 78.398438 C 136.960938 78.949219 136.492188 79.273438 136.121094 79.644531 C 127.640625 88.121094 119.15625 96.59375 110.625 105.113281 Z M 110.625 105.113281 " fill-opacity="1" fill-rule="nonzero"/><path fill="#F5F0E8" d="M 156.222656 66.449219 C 150.285156 72.375 144.394531 78.261719 138.503906 84.140625 C 138.148438 84.496094 137.820312 84.84375 137.730469 85.375 C 137.640625 85.886719 137.28125 86.25 136.925781 86.601562 C 131.953125 91.554688 126.964844 96.492188 122.003906 101.453125 C 110.804688 112.652344 99.621094 123.867188 88.429688 135.070312 C 87.375 136.125 86.320312 137.179688 85.261719 138.226562 C 85.128906 138.359375 84.988281 138.527344 84.824219 138.566406 C 83.199219 138.921875 82.363281 140.292969 81.308594 141.34375 C 73.339844 149.273438 65.402344 157.238281 57.453125 165.191406 C 56.714844 165.929688 56.199219 165.890625 55.027344 165.03125 C 55.039062 164.609375 55.398438 164.410156 55.648438 164.160156 C 64.167969 155.632812 72.691406 147.113281 81.214844 138.59375 C 81.804688 138.003906 82.421875 137.457031 82.632812 136.570312 C 82.746094 136.089844 83.203125 135.769531 83.554688 135.421875 C 99.550781 119.4375 115.546875 103.457031 131.542969 87.472656 C 132.621094 86.398438 133.699219 85.320312 134.777344 84.246094 C 134.929688 84.09375 135.074219 83.890625 135.261719 83.820312 C 137.554688 82.949219 138.867188 80.921875 140.496094 79.3125 C 148.230469 71.671875 155.886719 63.953125 163.570312 56.261719 C 163.785156 56.046875 163.980469 55.789062 164.300781 55.722656 C 165.246094 56.699219 165.265625 57.402344 164.371094 58.296875 C 161.671875 61 158.96875 63.699219 156.222656 66.449219 Z M 156.222656 66.449219 " fill-opacity="1" fill-rule="nonzero"/><path fill="#F5F0E8" d="M 6.570312 112.730469 C 14.964844 104.335938 23.316406 95.992188 31.667969 87.652344 C 32.109375 87.207031 32.445312 86.746094 32.65625 86.121094 C 33.039062 84.984375 34.117188 84.367188 34.917969 83.566406 C 43.972656 74.480469 53.066406 65.433594 62.144531 56.367188 C 69.488281 49.035156 76.820312 41.699219 84.15625 34.359375 C 84.664062 33.855469 85.144531 33.332031 85.914062 33.214844 C 86.304688 33.152344 86.527344 32.808594 86.785156 32.546875 C 95.355469 23.980469 103.917969 15.414062 112.488281 6.847656 C 113.605469 5.726562 113.828125 5.714844 115.296875 6.632812 C 115.226562 7.128906 114.792969 7.375 114.480469 7.6875 C 105.789062 16.390625 97.085938 25.085938 88.386719 33.785156 C 87.949219 34.222656 87.527344 34.632812 87.398438 35.308594 C 87.292969 35.863281 86.804688 36.234375 86.40625 36.632812 C 73.808594 49.203125 61.207031 61.773438 48.609375 74.351562 C 44.277344 78.671875 39.949219 83 35.625 87.332031 C 35.203125 87.753906 34.785156 88.148438 34.160156 88.257812 C 33.699219 88.339844 33.433594 88.71875 33.128906 89.023438 C 24.539062 97.613281 15.953125 106.203125 7.363281 114.789062 C 6.949219 115.199219 6.59375 115.683594 6.058594 115.957031 C 5.085938 114.910156 5.074219 114.21875 6 113.304688 C 6.175781 113.128906 6.347656 112.953125 6.570312 112.730469 Z M 6.570312 112.730469 " fill-opacity="1" fill-rule="nonzero"/><path fill="#F5F0E8" d="M 61.121094 54.121094 C 52.578125 62.671875 44.078125 71.171875 35.578125 79.675781 C 31.429688 82.1875 28.59375 86.113281 25.140625 89.371094 C 21.640625 92.675781 18.3125 96.160156 14.90625 99.566406 C 11.523438 102.949219 8.140625 106.332031 4.757812 109.714844 C 4.5625 109.910156 4.386719 110.132812 4.097656 110.183594 C 3.199219 109.007812 3.222656 108.375 4.199219 107.398438 C 13.40625 98.195312 22.613281 88.996094 31.820312 79.792969 C 32.28125 79.332031 32.738281 78.898438 32.871094 78.195312 C 32.957031 77.738281 33.328125 77.394531 33.664062 77.0625 C 47.90625 62.835938 62.144531 48.605469 76.382812 34.375 C 76.832031 33.925781 77.300781 33.535156 77.945312 33.417969 C 78.417969 33.332031 78.667969 32.949219 78.96875 32.648438 C 88.242188 23.382812 97.515625 14.113281 106.789062 4.84375 C 107.710938 3.921875 108.328125 3.894531 109.511719 4.722656 C 109.519531 5.082031 109.222656 5.25 109.011719 5.464844 C 99.613281 14.867188 90.210938 24.269531 80.808594 33.667969 C 80.214844 34.261719 79.582031 34.800781 79.390625 35.691406 C 79.332031 35.964844 79.058594 36.210938 78.84375 36.425781 C 72.953125 42.3125 67.0625 48.191406 61.121094 54.121094 Z M 61.121094 54.121094 " fill-opacity="1" fill-rule="nonzero"/><path fill="#F5F0E8" d="M 100.445312 126.253906 C 111.367188 115.339844 122.242188 104.472656 133.121094 93.605469 C 133.863281 92.867188 134.519531 92.023438 135.65625 91.808594 C 135.921875 91.757812 136.144531 91.445312 136.363281 91.226562 C 146.054688 81.542969 155.742188 71.855469 165.433594 62.175781 C 165.6875 61.921875 165.890625 61.578125 166.296875 61.523438 C 167.160156 62.761719 167.132812 63.292969 166.101562 64.324219 C 156.921875 73.507812 147.738281 82.683594 138.558594 91.867188 C 137.886719 92.539062 137.125 93.128906 136.882812 94.148438 C 136.800781 94.5 136.425781 94.800781 136.140625 95.082031 C 122.039062 109.183594 107.925781 123.269531 93.847656 137.390625 C 93.152344 138.085938 92.199219 138.171875 91.519531 138.863281 C 86.722656 143.726562 81.882812 148.550781 77.046875 153.382812 C 72.5625 157.859375 68.074219 162.332031 63.582031 166.800781 C 62.597656 167.777344 62.160156 167.804688 60.832031 166.992188 C 60.855469 166.53125 61.25 166.328125 61.519531 166.054688 C 70.898438 156.675781 80.285156 147.300781 89.667969 137.925781 C 90.210938 137.382812 90.789062 136.875 90.953125 136.046875 C 91.054688 135.546875 91.472656 135.214844 91.828125 134.863281 C 94.6875 132.007812 97.542969 129.15625 100.445312 126.253906 Z M 100.445312 126.253906 " fill-opacity="1" fill-rule="nonzero"/><path fill="#F5F0E8" d="M 85.671875 21.0625 C 80.324219 26.398438 75.027344 31.691406 69.726562 36.976562 C 69.347656 37.355469 69.007812 37.734375 68.898438 38.285156 C 68.789062 38.832031 68.378906 39.191406 68.003906 39.566406 C 63.644531 43.902344 59.277344 48.230469 54.925781 52.578125 C 50.335938 57.167969 45.765625 61.777344 41.183594 66.371094 C 40.304688 67.253906 39.519531 68.277344 38.5 68.949219 C 33.878906 71.984375 30.570312 76.390625 26.625 80.128906 C 22.632812 83.90625 18.832031 87.886719 14.945312 91.773438 C 11.078125 95.640625 7.210938 99.503906 3.339844 103.367188 C 3.085938 103.621094 2.890625 103.972656 2.476562 104.019531 C 1.710938 102.765625 1.78125 102.0625 2.738281 101.105469 C 13.414062 90.433594 24.082031 79.75 34.773438 69.089844 C 35.785156 68.078125 36.210938 66.710938 37.253906 65.683594 C 45.085938 57.96875 52.84375 50.175781 60.628906 42.410156 C 62.011719 41.027344 63.371094 39.617188 64.785156 38.265625 C 65.597656 37.488281 66.238281 36.472656 67.484375 36.226562 C 67.773438 36.167969 68.019531 35.820312 68.257812 35.582031 C 79.007812 24.84375 89.75 14.105469 100.492188 3.367188 C 101.394531 2.464844 102.167969 2.402344 103.492188 3.222656 C 97.550781 9.171875 91.632812 15.09375 85.671875 21.0625 Z M 85.671875 21.0625 " fill-opacity="1" fill-rule="nonzero"/><path fill="#F5F0E8" d="M 87.121094 148.164062 C 91.539062 143.75 95.914062 139.378906 100.289062 135.011719 C 100.726562 134.574219 101.148438 134.152344 101.285156 133.488281 C 101.386719 133 101.800781 132.652344 102.152344 132.296875 C 111.890625 122.574219 121.628906 112.851562 131.363281 103.125 C 131.742188 102.746094 132.136719 102.40625 132.679688 102.292969 C 133.234375 102.175781 133.5625 101.738281 133.933594 101.367188 C 144.9375 90.363281 155.941406 79.359375 166.949219 68.359375 C 167.226562 68.082031 167.445312 67.707031 167.890625 67.648438 C 168.636719 68.910156 168.582031 69.546875 167.617188 70.511719 C 156.835938 81.296875 146.050781 92.082031 135.261719 102.859375 C 134.863281 103.261719 134.570312 103.679688 134.367188 104.230469 C 133.980469 105.285156 133.019531 105.925781 132.261719 106.683594 C 126.28125 112.691406 120.261719 118.667969 114.257812 124.652344 C 110.824219 128.074219 107.558594 131.6875 103.898438 134.84375 C 102.1875 136.324219 100.402344 137.734375 98.792969 139.339844 C 89.144531 148.976562 79.503906 158.621094 69.863281 168.265625 C 68.878906 169.25 68.390625 169.308594 66.789062 168.5 C 73.585938 161.699219 80.328125 154.957031 87.121094 148.164062 Z M 87.121094 148.164062 " fill-opacity="1" fill-rule="nonzero"/><g clip-path="url(#7c8dcc27a0)"><path fill="#F5F0E8" d="M 5.066406 91.089844 C 18.378906 77.777344 31.644531 64.511719 44.910156 51.246094 C 61.164062 34.996094 77.433594 18.761719 93.644531 2.46875 C 94.707031 1.402344 95.652344 1.589844 96.609375 1.796875 C 64.808594 33.609375 32.984375 65.449219 1.207031 97.238281 C 0.65625 96.183594 0.738281 95.4375 1.667969 94.503906 C 2.78125 93.378906 3.902344 92.257812 5.066406 91.089844 Z M 5.066406 91.089844 " fill-opacity="1" fill-rule="nonzero"/></g><g clip-path="url(#c1fdb9aef1)"><path fill="#F5F0E8" d="M 99.226562 146.660156 C 94.167969 151.710938 89.152344 156.710938 84.140625 161.714844 C 81.65625 164.191406 79.171875 166.667969 76.691406 169.152344 C 75.515625 170.328125 75.261719 170.386719 73.851562 169.886719 C 105.589844 138.125 137.414062 106.277344 169.183594 74.484375 C 169.6875 75.445312 169.628906 76.210938 168.835938 77.003906 C 161.839844 84.019531 154.851562 91.042969 147.84375 98.046875 C 133.714844 112.167969 119.570312 126.273438 105.4375 140.390625 C 103.371094 142.453125 101.328125 144.539062 99.226562 146.660156 Z M 99.226562 146.660156 " fill-opacity="1" fill-rule="nonzero"/></g><g clip-path="url(#21f329521a)"><path fill="#F5F0E8" d="M 87.300781 163.445312 C 104.992188 145.757812 122.632812 128.117188 140.273438 110.476562 C 149.746094 101.007812 159.214844 91.539062 168.691406 82.078125 C 168.984375 81.785156 169.222656 81.382812 169.6875 81.296875 C 170.210938 82.511719 170.058594 83.53125 169.207031 84.378906 C 151.675781 101.914062 134.140625 119.441406 116.609375 136.972656 C 105.667969 147.914062 94.714844 158.84375 83.8125 169.824219 C 82.789062 170.855469 81.789062 170.769531 80.304688 170.445312 C 82.726562 168.023438 84.992188 165.757812 87.300781 163.445312 Z M 87.300781 163.445312 " fill-opacity="1" fill-rule="nonzero"/></g><g clip-path="url(#55da755794)"><path fill="#F5F0E8" d="M 35.296875 53.089844 C 52.433594 35.957031 69.523438 18.867188 86.613281 1.78125 C 87.488281 0.90625 88.492188 0.761719 89.546875 1.234375 C 59.902344 30.882812 30.214844 60.574219 0.566406 90.226562 C 0.0742188 89.082031 0.21875 88.167969 1.117188 87.269531 C 12.496094 75.890625 23.871094 64.515625 35.296875 53.089844 Z M 35.296875 53.089844 " fill-opacity="1" fill-rule="nonzero"/></g><g clip-path="url(#80734521bf)"><path fill="#F5F0E8" d="M 71.195312 12.367188 C 53.621094 29.9375 36.09375 47.460938 18.566406 64.984375 C 12.8125 70.738281 7.058594 76.492188 1.300781 82.242188 C 1.09375 82.449219 0.925781 82.738281 0.421875 82.734375 C 0.464844 81.566406 0.210938 80.453125 1.195312 79.472656 C 13.949219 66.75 26.679688 54.003906 39.414062 41.265625 C 52.546875 28.132812 65.691406 15.011719 78.804688 1.859375 C 79.808594 0.851562 80.929688 1.25 82.007812 1.050781 C 82.066406 1.152344 82.121094 1.257812 82.179688 1.363281 C 78.53125 5.015625 74.886719 8.667969 71.195312 12.367188 Z M 71.195312 12.367188 " fill-opacity="1" fill-rule="nonzero"/></g><g clip-path="url(#743c5314cc)"><path fill="#F5F0E8" d="M 122.691406 135.824219 C 138.355469 120.128906 153.972656 104.480469 169.636719 88.78125 C 170.167969 89.957031 169.960938 91.3125 169.214844 92.0625 C 162.902344 98.394531 156.585938 104.71875 150.269531 111.046875 C 143.578125 117.746094 136.890625 124.445312 130.195312 131.140625 C 117.238281 144.089844 104.277344 157.035156 91.316406 169.984375 C 90.664062 170.636719 89.15625 170.867188 88.125 170.398438 C 99.652344 158.867188 111.148438 147.367188 122.691406 135.824219 Z M 122.691406 135.824219 " fill-opacity="1" fill-rule="nonzero"/></g><path fill="#F5F0E8" d="M 115.167969 151.042969 C 133.125 133.097656 151.035156 115.195312 168.945312 97.296875 C 169.019531 97.347656 169.097656 97.398438 169.171875 97.449219 C 169.066406 98.828125 168.984375 100.121094 167.835938 101.269531 C 146.394531 122.652344 124.988281 144.074219 103.574219 165.484375 C 102.433594 166.628906 101.277344 167.753906 100.148438 168.914062 C 99.175781 169.914062 97.921875 169.691406 96.769531 169.902344 C 96.710938 169.808594 96.652344 169.714844 96.59375 169.621094 C 102.769531 163.445312 108.945312 157.269531 115.167969 151.042969 Z M 115.167969 151.042969 " fill-opacity="1" fill-rule="nonzero"/><path fill="#F5F0E8" d="M 39.398438 33.515625 C 49.617188 23.300781 59.800781 13.140625 69.949219 2.945312 C 71.015625 1.878906 72.300781 2.058594 73.601562 1.835938 C 73.339844 2.503906 2.132812 73.820312 1.066406 74.449219 C 1.433594 73.050781 1.152344 71.742188 2.238281 70.660156 C 14.625 58.308594 26.984375 45.933594 39.398438 33.515625 Z M 39.398438 33.515625 " fill-opacity="1" fill-rule="nonzero"/><path fill="#F5F0E8" d="M 28.042969 40.058594 C 19.773438 48.324219 11.550781 56.546875 3.328125 64.765625 C 3.246094 64.714844 3.164062 64.664062 3.082031 64.613281 C 3.453125 63.261719 3.445312 61.78125 4.550781 60.675781 C 17.265625 47.957031 29.984375 35.242188 42.703125 22.527344 C 48.390625 16.839844 54.097656 11.167969 59.746094 5.441406 C 60.949219 4.21875 62.484375 4.179688 63.914062 3.722656 C 63.980469 3.808594 64.046875 3.898438 64.113281 3.984375 C 52.105469 15.992188 40.097656 28 28.042969 40.058594 Z M 28.042969 40.058594 " fill-opacity="1" fill-rule="nonzero"/><path fill="#F5F0E8" d="M 146.554688 127.4375 C 153.398438 120.582031 160.199219 113.777344 166.945312 107.019531 C 167.296875 107.125 167.285156 107.300781 167.25 107.441406 C 166.832031 109.027344 166.351562 110.484375 165.082031 111.742188 C 156.625 120.105469 148.269531 128.570312 139.859375 136.980469 C 129.976562 146.859375 120.070312 156.71875 110.171875 166.582031 C 109.113281 167.636719 107.671875 167.613281 106.378906 167.992188 C 106.324219 167.914062 106.273438 167.835938 106.222656 167.757812 C 119.652344 154.332031 133.082031 140.90625 146.554688 127.4375 Z M 146.554688 127.4375 " fill-opacity="1" fill-rule="nonzero"/><path fill="#F5F0E8" d="M 21.132812 36.316406 C 29.902344 27.546875 38.609375 18.8125 47.355469 10.117188 C 48.679688 8.800781 50.546875 8.429688 52.269531 7.648438 C 52.078125 8.421875 8.460938 52.15625 7.164062 52.972656 C 6.921875 52.773438 7.128906 52.589844 7.183594 52.398438 C 8.101562 49.136719 10.445312 46.910156 12.765625 44.652344 C 15.570312 41.917969 18.316406 39.128906 21.132812 36.316406 Z M 21.132812 36.316406 " fill-opacity="1" fill-rule="nonzero"/><path fill="#F5F0E8" d="M 125.132812 156.535156 C 137.824219 143.855469 150.46875 131.21875 163.121094 118.574219 C 163.246094 118.71875 163.324219 118.78125 163.3125 118.804688 C 162.550781 120.65625 161.972656 122.585938 160.484375 124.070312 C 148.085938 136.441406 135.703125 148.828125 123.335938 161.230469 C 121.828125 162.742188 119.84375 163.210938 118.074219 164.144531 C 118 164.046875 117.925781 163.949219 117.851562 163.847656 C 120.265625 161.425781 122.675781 159.003906 125.132812 156.535156 Z M 125.132812 156.535156 " fill-opacity="1" fill-rule="nonzero"/><path fill="#F5F0E8" d="M 37.085938 15.917969 C 37.34375 15.742188 37.542969 15.589844 37.753906 15.464844 C 37.820312 15.425781 37.921875 15.449219 37.832031 15.453125 C 30.195312 23.097656 22.472656 30.828125 14.621094 38.683594 C 20.753906 29.632812 28.164062 22.082031 37.085938 15.917969 Z M 37.085938 15.917969 " fill-opacity="1" fill-rule="nonzero"/><path fill="#F5F0E8" d="M 141.1875 149.664062 C 138.363281 152.09375 135.507812 154.375 132.757812 156.152344 C 140.167969 148.738281 147.839844 141.0625 155.417969 133.488281 C 151.402344 139.347656 146.679688 144.796875 141.1875 149.664062 Z M 141.1875 149.664062 " fill-opacity="1" fill-rule="nonzero"/></g></g></g><g fill="#F5F0E8" fill-opacity="1"><g transform="translate(518.776093, 987.558519)"><g><path d="M 0.40625 0 L 7.3125 -16.796875 L 9.28125 -16.796875 L 16.203125 0 L 13.96875 0 L 12.390625 -3.8125 L 4.203125 -3.8125 L 2.65625 0 Z M 5.015625 -5.78125 L 11.59375 -5.78125 L 8.296875 -13.84375 Z M 5.015625 -5.78125 "/></g></g></g><g fill="#F5F0E8" fill-opacity="1"><g transform="translate(535.384123, 987.558519)"><g><path d="M 2.453125 0 L 2.453125 -16.796875 L 8.859375 -16.796875 C 10.023438 -16.796875 11.039062 -16.578125 11.90625 -16.140625 C 12.769531 -15.703125 13.441406 -15.082031 13.921875 -14.28125 C 14.398438 -13.476562 14.640625 -12.519531 14.640625 -11.40625 C 14.640625 -10.039062 14.285156 -8.914062 13.578125 -8.03125 C 12.878906 -7.144531 11.914062 -6.546875 10.6875 -6.234375 L 14.90625 0 L 12.359375 0 L 8.25 -6.03125 L 4.5625 -6.03125 L 4.5625 0 Z M 4.5625 -8.046875 L 8.609375 -8.046875 C 9.847656 -8.046875 10.800781 -8.335938 11.46875 -8.921875 C 12.144531 -9.503906 12.484375 -10.332031 12.484375 -11.40625 C 12.484375 -12.476562 12.144531 -13.304688 11.46875 -13.890625 C 10.800781 -14.484375 9.847656 -14.78125 8.609375 -14.78125 L 4.5625 -14.78125 Z M 4.5625 -8.046875 "/></g></g></g><g fill="#F5F0E8" fill-opacity="1"><g transform="translate(551.512155, 987.558519)"><g><path d="M 9.890625 0.3125 C 8.660156 0.3125 7.523438 0.0976562 6.484375 -0.328125 C 5.441406 -0.765625 4.539062 -1.367188 3.78125 -2.140625 C 3.019531 -2.921875 2.429688 -3.84375 2.015625 -4.90625 C 1.597656 -5.96875 1.390625 -7.132812 1.390625 -8.40625 C 1.390625 -9.664062 1.597656 -10.828125 2.015625 -11.890625 C 2.429688 -12.953125 3.019531 -13.867188 3.78125 -14.640625 C 4.539062 -15.421875 5.441406 -16.023438 6.484375 -16.453125 C 7.523438 -16.890625 8.660156 -17.109375 9.890625 -17.109375 C 11.210938 -17.109375 12.429688 -16.863281 13.546875 -16.375 C 14.660156 -15.882812 15.613281 -15.1875 16.40625 -14.28125 C 17.195312 -13.382812 17.773438 -12.320312 18.140625 -11.09375 L 15.890625 -11.09375 C 15.453125 -12.300781 14.703125 -13.253906 13.640625 -13.953125 C 12.578125 -14.648438 11.347656 -15 9.953125 -15 C 8.710938 -15 7.609375 -14.71875 6.640625 -14.15625 C 5.679688 -13.59375 4.925781 -12.816406 4.375 -11.828125 C 3.820312 -10.835938 3.546875 -9.695312 3.546875 -8.40625 C 3.546875 -7.101562 3.820312 -5.957031 4.375 -4.96875 C 4.925781 -3.976562 5.679688 -3.203125 6.640625 -2.640625 C 7.609375 -2.078125 8.710938 -1.796875 9.953125 -1.796875 C 11.378906 -1.796875 12.644531 -2.164062 13.75 -2.90625 C 14.851562 -3.644531 15.625 -4.644531 16.0625 -5.90625 L 18.28125 -5.90625 C 17.945312 -4.65625 17.375 -3.566406 16.5625 -2.640625 C 15.757812 -1.710938 14.785156 -0.988281 13.640625 -0.46875 C 12.492188 0.0507812 11.242188 0.3125 9.890625 0.3125 Z M 9.890625 0.3125 "/></g></g></g><g fill="#F5F0E8" fill-opacity="1"><g transform="translate(571.096199, 987.558519)"><g><path d="M 13.46875 0 L 13.46875 -7.5625 L 4.5625 -7.5625 L 4.5625 0 L 2.453125 0 L 2.453125 -16.796875 L 4.5625 -16.796875 L 4.5625 -9.578125 L 13.46875 -9.578125 L 13.46875 -16.796875 L 15.578125 -16.796875 L 15.578125 0 Z M 13.46875 0 "/></g></g></g><g fill="#F5F0E8" fill-opacity="1"><g transform="translate(589.12023, 987.558519)"><g><path d="M 2.453125 0 L 2.453125 -16.796875 L 4.5625 -16.796875 L 4.5625 0 Z M 2.453125 0 "/></g></g></g><g fill="#F5F0E8" fill-opacity="1"><g transform="translate(596.128248, 987.558519)"><g><path d="M 6.5 0 L 6.5 -14.78125 L 0.8125 -14.78125 L 0.8125 -16.796875 L 14.28125 -16.796875 L 14.28125 -14.78125 L 8.609375 -14.78125 L 8.609375 0 Z M 6.5 0 "/></g></g></g><g fill="#F5F0E8" fill-opacity="1"><g transform="translate(611.248272, 987.558519)"><g><path d="M 2.453125 0 L 2.453125 -16.796875 L 12.640625 -16.796875 L 12.640625 -14.828125 L 4.5625 -14.828125 L 4.5625 -9.53125 L 12.046875 -9.53125 L 12.046875 -7.578125 L 4.5625 -7.578125 L 4.5625 -1.96875 L 12.90625 -1.96875 L 12.90625 0 Z M 2.453125 0 "/></g></g></g><g fill="#F5F0E8" fill-opacity="1"><g transform="translate(625.5283, 987.558519)"><g><path d="M 9.890625 0.3125 C 8.660156 0.3125 7.523438 0.0976562 6.484375 -0.328125 C 5.441406 -0.765625 4.539062 -1.367188 3.78125 -2.140625 C 3.019531 -2.921875 2.429688 -3.84375 2.015625 -4.90625 C 1.597656 -5.96875 1.390625 -7.132812 1.390625 -8.40625 C 1.390625 -9.664062 1.597656 -10.828125 2.015625 -11.890625 C 2.429688 -12.953125 3.019531 -13.867188 3.78125 -14.640625 C 4.539062 -15.421875 5.441406 -16.023438 6.484375 -16.453125 C 7.523438 -16.890625 8.660156 -17.109375 9.890625 -17.109375 C 11.210938 -17.109375 12.429688 -16.863281 13.546875 -16.375 C 14.660156 -15.882812 15.613281 -15.1875 16.40625 -14.28125 C 17.195312 -13.382812 17.773438 -12.320312 18.140625 -11.09375 L 15.890625 -11.09375 C 15.453125 -12.300781 14.703125 -13.253906 13.640625 -13.953125 C 12.578125 -14.648438 11.347656 -15 9.953125 -15 C 8.710938 -15 7.609375 -14.71875 6.640625 -14.15625 C 5.679688 -13.59375 4.925781 -12.816406 4.375 -11.828125 C 3.820312 -10.835938 3.546875 -9.695312 3.546875 -8.40625 C 3.546875 -7.101562 3.820312 -5.957031 4.375 -4.96875 C 4.925781 -3.976562 5.679688 -3.203125 6.640625 -2.640625 C 7.609375 -2.078125 8.710938 -1.796875 9.953125 -1.796875 C 11.378906 -1.796875 12.644531 -2.164062 13.75 -2.90625 C 14.851562 -3.644531 15.625 -4.644531 16.0625 -5.90625 L 18.28125 -5.90625 C 17.945312 -4.65625 17.375 -3.566406 16.5625 -2.640625 C 15.757812 -1.710938 14.785156 -0.988281 13.640625 -0.46875 C 12.492188 0.0507812 11.242188 0.3125 9.890625 0.3125 Z M 9.890625 0.3125 "/></g></g></g><g fill="#F5F0E8" fill-opacity="1"><g transform="translate(643.936349, 987.558519)"><g><path d="M 6.5 0 L 6.5 -14.78125 L 0.8125 -14.78125 L 0.8125 -16.796875 L 14.28125 -16.796875 L 14.28125 -14.78125 L 8.609375 -14.78125 L 8.609375 0 Z M 6.5 0 "/></g></g></g><g fill="#F5F0E8" fill-opacity="1"><g transform="translate(659.056373, 987.558519)"><g><path d="M 8.734375 0.28125 C 6.703125 0.28125 5.113281 -0.347656 3.96875 -1.609375 C 2.820312 -2.867188 2.25 -4.613281 2.25 -6.84375 L 2.25 -16.796875 L 4.34375 -16.796875 L 4.34375 -6.984375 C 4.34375 -5.273438 4.71875 -3.976562 5.46875 -3.09375 C 6.21875 -2.21875 7.304688 -1.78125 8.734375 -1.78125 C 11.660156 -1.78125 13.125 -3.515625 13.125 -6.984375 L 13.125 -16.796875 L 15.234375 -16.796875 L 15.234375 -6.84375 C 15.234375 -4.613281 14.65625 -2.867188 13.5 -1.609375 C 12.351562 -0.347656 10.765625 0.28125 8.734375 0.28125 Z M 8.734375 0.28125 "/></g></g></g><g fill="#F5F0E8" fill-opacity="1"><g transform="translate(676.552408, 987.558519)"><g><path d="M 2.453125 0 L 2.453125 -16.796875 L 8.859375 -16.796875 C 10.023438 -16.796875 11.039062 -16.578125 11.90625 -16.140625 C 12.769531 -15.703125 13.441406 -15.082031 13.921875 -14.28125 C 14.398438 -13.476562 14.640625 -12.519531 14.640625 -11.40625 C 14.640625 -10.039062 14.285156 -8.914062 13.578125 -8.03125 C 12.878906 -7.144531 11.914062 -6.546875 10.6875 -6.234375 L 14.90625 0 L 12.359375 0 L 8.25 -6.03125 L 4.5625 -6.03125 L 4.5625 0 Z M 4.5625 -8.046875 L 8.609375 -8.046875 C 9.847656 -8.046875 10.800781 -8.335938 11.46875 -8.921875 C 12.144531 -9.503906 12.484375 -10.332031 12.484375 -11.40625 C 12.484375 -12.476562 12.144531 -13.304688 11.46875 -13.890625 C 10.800781 -14.484375 9.847656 -14.78125 8.609375 -14.78125 L 4.5625 -14.78125 Z M 4.5625 -8.046875 "/></g></g></g><g fill="#F5F0E8" fill-opacity="1"><g transform="translate(692.896435, 987.558519)"><g><path d="M 2.453125 0 L 2.453125 -16.796875 L 12.640625 -16.796875 L 12.640625 -14.828125 L 4.5625 -14.828125 L 4.5625 -9.53125 L 12.046875 -9.53125 L 12.046875 -7.578125 L 4.5625 -7.578125 L 4.5625 -1.96875 L 12.90625 -1.96875 L 12.90625 0 Z M 2.453125 0 "/></g></g></g><g fill="#F5F0E8" fill-opacity="1"><g transform="translate(707.368461, 987.558519)"><g/></g></g><g fill="#F5F0E8" fill-opacity="1"><g transform="translate(713.320464, 987.558519)"><g><path d="M 2.453125 0 L 2.453125 -16.796875 L 4.5625 -16.796875 L 4.5625 0 Z M 2.453125 0 "/></g></g></g><g fill="#F5F0E8" fill-opacity="1"><g transform="translate(720.328505, 987.558519)"><g/></g></g><g fill="#F5F0E8" fill-opacity="1"><g transform="translate(726.280508, 987.558519)"><g><path d="M 2.453125 0 L 2.453125 -16.796875 L 4.5625 -16.796875 L 4.5625 0 Z M 2.453125 0 "/></g></g></g><g fill="#F5F0E8" fill-opacity="1"><g transform="translate(733.288526, 987.558519)"><g><path d="M 2.453125 0 L 2.453125 -16.796875 L 4.4375 -16.796875 L 13.734375 -3.640625 L 13.734375 -16.796875 L 15.796875 -16.796875 L 15.796875 0 L 13.828125 0 L 4.53125 -13.15625 L 4.53125 0 Z M 2.453125 0 "/></g></g></g><g fill="#F5F0E8" fill-opacity="1"><g transform="translate(751.528575, 987.558519)"><g><path d="M 6.5 0 L 6.5 -14.78125 L 0.8125 -14.78125 L 0.8125 -16.796875 L 14.28125 -16.796875 L 14.28125 -14.78125 L 8.609375 -14.78125 L 8.609375 0 Z M 6.5 0 "/></g></g></g><g fill="#F5F0E8" fill-opacity="1"><g transform="translate(766.648599, 987.558519)"><g><path d="M 2.453125 0 L 2.453125 -16.796875 L 12.640625 -16.796875 L 12.640625 -14.828125 L 4.5625 -14.828125 L 4.5625 -9.53125 L 12.046875 -9.53125 L 12.046875 -7.578125 L 4.5625 -7.578125 L 4.5625 -1.96875 L 12.90625 -1.96875 L 12.90625 0 Z M 2.453125 0 "/></g></g></g><g fill="#F5F0E8" fill-opacity="1"><g transform="translate(781.120614, 987.558519)"><g><path d="M 2.453125 0 L 2.453125 -16.796875 L 8.859375 -16.796875 C 10.023438 -16.796875 11.039062 -16.578125 11.90625 -16.140625 C 12.769531 -15.703125 13.441406 -15.082031 13.921875 -14.28125 C 14.398438 -13.476562 14.640625 -12.519531 14.640625 -11.40625 C 14.640625 -10.039062 14.285156 -8.914062 13.578125 -8.03125 C 12.878906 -7.144531 11.914062 -6.546875 10.6875 -6.234375 L 14.90625 0 L 12.359375 0 L 8.25 -6.03125 L 4.5625 -6.03125 L 4.5625 0 Z M 4.5625 -8.046875 L 8.609375 -8.046875 C 9.847656 -8.046875 10.800781 -8.335938 11.46875 -8.921875 C 12.144531 -9.503906 12.484375 -10.332031 12.484375 -11.40625 C 12.484375 -12.476562 12.144531 -13.304688 11.46875 -13.890625 C 10.800781 -14.484375 9.847656 -14.78125 8.609375 -14.78125 L 4.5625 -14.78125 Z M 4.5625 -8.046875 "/></g></g></g><g fill="#F5F0E8" fill-opacity="1"><g transform="translate(797.464652, 987.558519)"><g><path d="M 2.453125 0 L 2.453125 -16.796875 L 4.5625 -16.796875 L 4.5625 0 Z M 2.453125 0 "/></g></g></g><g fill="#F5F0E8" fill-opacity="1"><g transform="translate(804.472647, 987.558519)"><g><path d="M 10.078125 0.3125 C 8.378906 0.3125 6.875 -0.0546875 5.5625 -0.796875 C 4.25 -1.546875 3.222656 -2.578125 2.484375 -3.890625 C 1.753906 -5.203125 1.390625 -6.707031 1.390625 -8.40625 C 1.390625 -10.113281 1.753906 -11.617188 2.484375 -12.921875 C 3.222656 -14.222656 4.25 -15.242188 5.5625 -15.984375 C 6.875 -16.734375 8.378906 -17.109375 10.078125 -17.109375 C 11.785156 -17.109375 13.289062 -16.734375 14.59375 -15.984375 C 15.90625 -15.242188 16.929688 -14.222656 17.671875 -12.921875 C 18.421875 -11.617188 18.796875 -10.113281 18.796875 -8.40625 C 18.796875 -6.707031 18.421875 -5.203125 17.671875 -3.890625 C 16.929688 -2.578125 15.90625 -1.546875 14.59375 -0.796875 C 13.289062 -0.0546875 11.785156 0.3125 10.078125 0.3125 Z M 3.546875 -8.40625 C 3.546875 -7.101562 3.820312 -5.957031 4.375 -4.96875 C 4.925781 -3.976562 5.691406 -3.203125 6.671875 -2.640625 C 7.660156 -2.078125 8.796875 -1.796875 10.078125 -1.796875 C 11.378906 -1.796875 12.515625 -2.078125 13.484375 -2.640625 C 14.460938 -3.203125 15.226562 -3.976562 15.78125 -4.96875 C 16.332031 -5.957031 16.609375 -7.101562 16.609375 -8.40625 C 16.609375 -9.71875 16.332031 -10.863281 15.78125 -11.84375 C 15.226562 -12.820312 14.460938 -13.59375 13.484375 -14.15625 C 12.515625 -14.71875 11.378906 -15 10.078125 -15 C 8.796875 -15 7.660156 -14.71875 6.671875 -14.15625 C 5.691406 -13.59375 4.925781 -12.820312 4.375 -11.84375 C 3.820312 -10.863281 3.546875 -9.71875 3.546875 -8.40625 Z M 3.546875 -8.40625 "/></g></g></g><g fill="#F5F0E8" fill-opacity="1"><g transform="translate(824.632695, 987.558519)"><g><path d="M 2.453125 0 L 2.453125 -16.796875 L 8.859375 -16.796875 C 10.023438 -16.796875 11.039062 -16.578125 11.90625 -16.140625 C 12.769531 -15.703125 13.441406 -15.082031 13.921875 -14.28125 C 14.398438 -13.476562 14.640625 -12.519531 14.640625 -11.40625 C 14.640625 -10.039062 14.285156 -8.914062 13.578125 -8.03125 C 12.878906 -7.144531 11.914062 -6.546875 10.6875 -6.234375 L 14.90625 0 L 12.359375 0 L 8.25 -6.03125 L 4.5625 -6.03125 L 4.5625 0 Z M 4.5625 -8.046875 L 8.609375 -8.046875 C 9.847656 -8.046875 10.800781 -8.335938 11.46875 -8.921875 C 12.144531 -9.503906 12.484375 -10.332031 12.484375 -11.40625 C 12.484375 -12.476562 12.144531 -13.304688 11.46875 -13.890625 C 10.800781 -14.484375 9.847656 -14.78125 8.609375 -14.78125 L 4.5625 -14.78125 Z M 4.5625 -8.046875 "/></g></g></g><g fill="#F5F0E8" fill-opacity="1"><g transform="translate(840.784724, 987.558519)"><g/></g></g><g fill="#F5F0E8" fill-opacity="1"><g transform="translate(846.736727, 987.558519)"><g><path d="M 2.453125 0 L 2.453125 -16.796875 L 4.5625 -16.796875 L 4.5625 0 Z M 2.453125 0 "/></g></g></g><g fill="#F5F0E8" fill-opacity="1"><g transform="translate(853.744768, 987.558519)"><g/></g></g><g fill="#F5F0E8" fill-opacity="1"><g transform="translate(859.696771, 987.558519)"><g><path d="M 2.453125 0 L 2.453125 -16.796875 L 8.25 -16.796875 C 9.976562 -16.796875 11.488281 -16.4375 12.78125 -15.71875 C 14.070312 -15.007812 15.078125 -14.023438 15.796875 -12.765625 C 16.515625 -11.515625 16.875 -10.0625 16.875 -8.40625 C 16.875 -6.75 16.515625 -5.289062 15.796875 -4.03125 C 15.078125 -2.769531 14.070312 -1.78125 12.78125 -1.0625 C 11.488281 -0.351562 9.976562 0 8.25 0 Z M 4.5625 -2.015625 L 8.25 -2.015625 C 9.53125 -2.015625 10.65625 -2.28125 11.625 -2.8125 C 12.59375 -3.351562 13.347656 -4.101562 13.890625 -5.0625 C 14.441406 -6.019531 14.71875 -7.132812 14.71875 -8.40625 C 14.71875 -9.675781 14.441406 -10.785156 13.890625 -11.734375 C 13.335938 -12.691406 12.570312 -13.4375 11.59375 -13.96875 C 10.613281 -14.507812 9.46875 -14.78125 8.15625 -14.78125 L 4.5625 -14.78125 Z M 4.5625 -2.015625 "/></g></g></g><g fill="#F5F0E8" fill-opacity="1"><g transform="translate(877.960807, 987.558519)"><g><path d="M 2.453125 0 L 2.453125 -16.796875 L 12.640625 -16.796875 L 12.640625 -14.828125 L 4.5625 -14.828125 L 4.5625 -9.53125 L 12.046875 -9.53125 L 12.046875 -7.578125 L 4.5625 -7.578125 L 4.5625 -1.96875 L 12.90625 -1.96875 L 12.90625 0 Z M 2.453125 0 "/></g></g></g><g fill="#F5F0E8" fill-opacity="1"><g transform="translate(892.216826, 987.558519)"><g><path d="M 8.046875 0.3125 C 6.703125 0.3125 5.535156 0.0820312 4.546875 -0.375 C 3.566406 -0.832031 2.804688 -1.472656 2.265625 -2.296875 C 1.734375 -3.117188 1.457031 -4.070312 1.4375 -5.15625 L 3.546875 -5.15625 C 3.578125 -4.082031 4.003906 -3.238281 4.828125 -2.625 C 5.660156 -2.007812 6.734375 -1.703125 8.046875 -1.703125 C 9.222656 -1.703125 10.160156 -1.929688 10.859375 -2.390625 C 11.554688 -2.859375 11.90625 -3.507812 11.90625 -4.34375 C 11.90625 -5.125 11.566406 -5.75 10.890625 -6.21875 C 10.222656 -6.695312 9.128906 -7.113281 7.609375 -7.46875 C 5.546875 -7.957031 4.03125 -8.585938 3.0625 -9.359375 C 2.101562 -10.140625 1.625 -11.179688 1.625 -12.484375 C 1.625 -13.898438 2.164062 -15.023438 3.25 -15.859375 C 4.332031 -16.691406 5.789062 -17.109375 7.625 -17.109375 C 9.519531 -17.109375 11.015625 -16.632812 12.109375 -15.6875 C 13.203125 -14.75 13.757812 -13.460938 13.78125 -11.828125 L 11.6875 -11.828125 C 11.664062 -12.835938 11.289062 -13.632812 10.5625 -14.21875 C 9.84375 -14.800781 8.863281 -15.09375 7.625 -15.09375 C 6.425781 -15.09375 5.488281 -14.859375 4.8125 -14.390625 C 4.132812 -13.921875 3.796875 -13.285156 3.796875 -12.484375 C 3.796875 -11.796875 4.109375 -11.210938 4.734375 -10.734375 C 5.367188 -10.265625 6.503906 -9.832031 8.140625 -9.4375 C 10.285156 -8.90625 11.8125 -8.242188 12.71875 -7.453125 C 13.632812 -6.660156 14.09375 -5.648438 14.09375 -4.421875 C 14.09375 -2.960938 13.539062 -1.804688 12.4375 -0.953125 C 11.34375 -0.109375 9.878906 0.3125 8.046875 0.3125 Z M 8.046875 0.3125 "/></g></g></g><g fill="#F5F0E8" fill-opacity="1"><g transform="translate(907.744855, 987.558519)"><g><path d="M 2.453125 0 L 2.453125 -16.796875 L 4.5625 -16.796875 L 4.5625 0 Z M 2.453125 0 "/></g></g></g><g fill="#F5F0E8" fill-opacity="1"><g transform="translate(914.752896, 987.558519)"><g><path d="M 9.9375 0.3125 C 8.707031 0.3125 7.570312 0.0976562 6.53125 -0.328125 C 5.488281 -0.765625 4.582031 -1.367188 3.8125 -2.140625 C 3.039062 -2.921875 2.441406 -3.84375 2.015625 -4.90625 C 1.597656 -5.96875 1.390625 -7.132812 1.390625 -8.40625 C 1.390625 -9.664062 1.597656 -10.820312 2.015625 -11.875 C 2.429688 -12.9375 3.019531 -13.859375 3.78125 -14.640625 C 4.550781 -15.421875 5.453125 -16.023438 6.484375 -16.453125 C 7.523438 -16.890625 8.660156 -17.109375 9.890625 -17.109375 C 11.171875 -17.109375 12.351562 -16.875 13.4375 -16.40625 C 14.53125 -15.945312 15.472656 -15.300781 16.265625 -14.46875 C 17.054688 -13.632812 17.625 -12.664062 17.96875 -11.5625 L 15.671875 -11.5625 C 15.140625 -12.65625 14.378906 -13.5 13.390625 -14.09375 C 12.398438 -14.695312 11.253906 -15 9.953125 -15 C 8.710938 -15 7.609375 -14.71875 6.640625 -14.15625 C 5.671875 -13.59375 4.910156 -12.816406 4.359375 -11.828125 C 3.816406 -10.835938 3.546875 -9.695312 3.546875 -8.40625 C 3.546875 -7.101562 3.820312 -5.957031 4.375 -4.96875 C 4.925781 -3.976562 5.6875 -3.203125 6.65625 -2.640625 C 7.625 -2.078125 8.734375 -1.796875 9.984375 -1.796875 C 11.117188 -1.796875 12.125 -2.019531 13 -2.46875 C 13.882812 -2.914062 14.601562 -3.535156 15.15625 -4.328125 C 15.707031 -5.117188 16.054688 -6.046875 16.203125 -7.109375 L 9.359375 -7.109375 L 9.359375 -9.125 L 18.484375 -9.125 C 18.515625 -7.28125 18.171875 -5.648438 17.453125 -4.234375 C 16.742188 -2.816406 15.742188 -1.703125 14.453125 -0.890625 C 13.171875 -0.0859375 11.664062 0.3125 9.9375 0.3125 Z M 9.9375 0.3125 "/></g></g></g><g fill="#F5F0E8" fill-opacity="1"><g transform="translate(934.552912, 987.558519)"><g><path d="M 2.453125 0 L 2.453125 -16.796875 L 4.4375 -16.796875 L 13.734375 -3.640625 L 13.734375 -16.796875 L 15.796875 -16.796875 L 15.796875 0 L 13.828125 0 L 4.53125 -13.15625 L 4.53125 0 Z M 2.453125 0 "/></g></g></g></svg>