<svg xmlns="http://www.w3.org/2000/svg" xmlns:xlink="http://www.w3.org/1999/xlink" width="2000" zoomAndPan="magnify" viewBox="0 0 1500 1499.999933" height="2000" preserveAspectRatio="xMidYMid meet" version="1.0"><defs><filter x="0%" y="0%" width="100%" height="100%" id="45238376c4"><feColorMatrix values="0 0 0 0 1 0 0 0 0 1 0 0 0 0 1 0 0 0 1 0" color-interpolation-filters="sRGB"/></filter><mask id="238d9faf51"><g filter="url(#45238376c4)"><rect x="-150" width="1800" fill="#000000" y="-149.999993" height="1799.99992" fill-opacity="0.57"/></g></mask><clipPath id="7e2a5fd557"><path d="M 466 468 L 988.878906 468 L 988.878906 988.878906 L 466 988.878906 Z M 466 468 " clip-rule="nonzero"/></clipPath><clipPath id="f6978b8376"><path d="M 0.078125 1 L 521 1 L 521 521 L 0.078125 521 Z M 0.078125 1 " clip-rule="nonzero"/></clipPath><clipPath id="74dde4db8c"><path d="M 512 512 L 988.878906 512 L 988.878906 988.878906 L 512 988.878906 Z M 512 512 " clip-rule="nonzero"/></clipPath><clipPath id="74ac7757e6"><rect x="0" width="989" y="0" height="989"/></clipPath></defs><g mask="url(#238d9faf51)"><g transform="matrix(1, 0, 0, 1, 256, 256)"><g clip-path="url(#74ac7757e6)"><path fill="#664f40" d="M 834.367188 136.363281 C 837.410156 139.71875 834.363281 141.140625 832.746094 142.761719 C 805.695312 169.917969 778.605469 197.039062 751.507812 224.148438 C 736.425781 239.234375 721.308594 254.289062 706.21875 269.371094 C 705.199219 270.386719 703.6875 271.386719 703.425781 272.613281 C 701.75 280.535156 695.378906 284.855469 690.230469 290.007812 C 554.351562 425.929688 418.421875 561.796875 282.523438 697.695312 C 279.800781 700.417969 277.117188 702.957031 273.121094 703.707031 C 270.46875 704.207031 268.992188 706.527344 267.226562 708.292969 C 225.929688 749.585938 184.660156 790.898438 143.378906 832.203125 C 138.613281 836.972656 138.074219 836.746094 133.578125 832.089844 C 130.117188 828.5 132.394531 826.480469 134.8125 824.066406 C 174.976562 783.945312 215.121094 743.808594 255.277344 703.675781 C 259.339844 699.617188 263.769531 695.941406 265.238281 689.875 C 265.917969 687.078125 268.566406 685.21875 270.613281 683.175781 C 340.941406 612.882812 411.269531 542.589844 481.597656 472.300781 C 523.664062 430.253906 565.71875 388.191406 607.8125 346.171875 C 633.140625 320.886719 658.539062 295.675781 683.894531 270.421875 C 686.480469 267.84375 689.125 265.417969 692.921875 264.769531 C 695.457031 264.339844 696.792969 262.21875 698.429688 260.585938 C 739.871094 219.1875 781.300781 177.769531 822.730469 136.359375 C 828.257812 130.835938 828.261719 130.839844 834.367188 136.363281 Z M 834.367188 136.363281 " fill-opacity="1" fill-rule="nonzero"/><path fill="#664f40" d="M 748.359375 272.03125 C 742.84375 277.542969 737.582031 282.765625 732.347656 288.015625 C 729.070312 291.304688 725.476562 294.21875 724.582031 299.351562 C 724.09375 302.152344 721.441406 304.09375 719.382812 306.152344 C 582.28125 443.191406 445.195312 580.25 308.101562 717.300781 C 304.421875 720.976562 301.183594 725.164062 295.34375 725.863281 C 293.84375 726.042969 292.449219 727.890625 291.1875 729.15625 C 249.371094 770.957031 207.574219 812.777344 165.78125 854.601562 C 161.621094 858.769531 156.136719 857.65625 154.160156 852.191406 C 153.167969 849.453125 155.488281 848.265625 156.917969 846.832031 C 173.894531 829.792969 190.921875 812.8125 207.9375 795.816406 C 232.625 771.152344 257.3125 746.488281 282.007812 721.835938 C 284.574219 719.269531 287.003906 716.742188 287.878906 712.945312 C 288.492188 710.273438 290.695312 708.390625 292.625 706.460938 C 375.863281 623.222656 459.078125 539.96875 542.324219 456.742188 C 596.796875 402.277344 651.3125 347.863281 705.785156 293.398438 C 708.761719 290.421875 711.78125 287.644531 716.050781 286.667969 C 718.074219 286.207031 719.53125 284.789062 720.9375 283.375 C 749.765625 254.429688 778.558594 225.449219 807.417969 196.535156 C 820.699219 183.230469 834.152344 170.101562 847.40625 156.769531 C 850.191406 153.96875 852.207031 153.734375 854.957031 156.777344 C 857.578125 159.679688 858.925781 161.714844 855.375 165.238281 C 819.695312 200.648438 784.183594 236.226562 748.359375 272.03125 Z M 748.359375 272.03125 " fill-opacity="1" fill-rule="nonzero"/><path fill="#664f40" d="M 235.476562 830.070312 C 220.375 845.171875 205.535156 859.996094 190.722656 874.847656 C 185.421875 880.164062 185.238281 880.015625 179.78125 875.5 C 176.195312 872.53125 178.164062 870.757812 180.351562 868.578125 C 196.488281 852.5 212.617188 836.40625 228.730469 820.300781 C 255.203125 793.839844 281.660156 767.359375 308.140625 740.90625 C 309.960938 739.089844 311.519531 737.238281 312.117188 734.609375 C 312.910156 731.125 315.296875 728.59375 317.746094 726.148438 C 379.949219 664.0625 442.171875 602.003906 504.335938 539.882812 C 542.316406 501.929688 580.152344 463.835938 618.136719 425.890625 C 654.84375 389.214844 691.667969 352.660156 728.410156 316.023438 C 731.011719 313.429688 733.59375 311.007812 737.414062 310.382812 C 739.71875 310.007812 741.058594 308.109375 742.570312 306.597656 C 784.253906 264.914062 825.914062 223.207031 867.625 181.550781 C 869.167969 180.011719 870.441406 176.894531 873.140625 178.132812 C 875.707031 179.308594 877.5625 181.917969 878.75 184.539062 C 879.796875 186.855469 877.464844 188.066406 876.136719 189.402344 C 858.027344 207.605469 839.898438 225.789062 821.738281 243.941406 C 798.460938 267.207031 775.15625 290.445312 751.851562 313.679688 C 749.410156 316.113281 747.132812 318.492188 746.414062 322.15625 C 745.800781 325.289062 743.09375 327.242188 740.929688 329.40625 C 686.191406 384.121094 631.441406 438.824219 576.703125 493.539062 C 494.46875 575.738281 412.238281 657.945312 330.027344 740.171875 C 327.570312 742.628906 325.179688 745 321.523438 745.582031 C 319.253906 745.941406 317.808594 747.710938 316.273438 749.242188 C 289.433594 776.097656 262.589844 802.949219 235.476562 830.070312 Z M 235.476562 830.070312 " fill-opacity="1" fill-rule="nonzero"/><path fill="#664f40" d="M 111.414062 806.285156 C 109.613281 803.332031 111.730469 801.996094 113.210938 800.511719 C 152.851562 760.898438 192.542969 721.332031 232.109375 681.640625 C 237.226562 676.511719 243.640625 672.328125 245.453125 664.425781 C 245.882812 662.554688 248.007812 660.988281 249.535156 659.464844 C 356.035156 553 462.554688 446.550781 569.078125 340.105469 C 599 310.203125 628.9375 280.316406 658.847656 250.398438 C 661.300781 247.941406 663.710938 245.652344 667.363281 244.988281 C 670.152344 244.476562 671.960938 242.175781 673.855469 240.28125 C 714.246094 199.886719 754.601562 159.457031 794.96875 119.039062 C 797.011719 116.996094 799.207031 115.097656 801.183594 112.988281 C 803.136719 110.902344 804.875 110.75 807.273438 112.484375 C 812.835938 116.507812 813.023438 117.433594 808.175781 122.277344 C 766.363281 164.070312 724.546875 205.855469 682.726562 247.636719 C 680.175781 250.1875 677.660156 252.566406 677.089844 256.546875 C 676.675781 259.457031 674.121094 261.402344 672.066406 263.453125 C 601.992188 333.484375 531.921875 403.515625 461.855469 473.554688 C 395.242188 540.140625 328.628906 606.730469 262.046875 673.347656 C 259.445312 675.945312 256.90625 678.34375 252.988281 678.789062 C 250.261719 679.097656 248.796875 681.484375 247.03125 683.246094 C 205.742188 724.535156 164.472656 765.84375 123.191406 807.144531 C 117.003906 813.339844 116.988281 813.324219 111.414062 806.285156 Z M 111.414062 806.285156 " fill-opacity="1" fill-rule="nonzero"/><path fill="#664f40" d="M 344.882812 744.261719 C 399.101562 690.03125 453.039062 636.078125 506.988281 582.136719 C 584.59375 504.542969 662.199219 426.957031 739.839844 349.402344 C 744.128906 345.117188 748.191406 340.835938 754.484375 338.703125 C 758.355469 337.394531 761.171875 332.855469 764.363281 329.667969 C 805.523438 288.511719 846.652344 247.332031 887.835938 206.203125 C 889.554688 204.484375 891.117188 201.214844 894.398438 204.3125 C 898.769531 208.441406 899.222656 211.214844 895.8125 214.628906 C 854.402344 256.058594 812.972656 297.46875 771.550781 338.886719 C 767.492188 342.941406 762.960938 346.53125 761.617188 352.707031 C 761.007812 355.5 758.253906 357.335938 756.214844 359.375 C 623.371094 492.179688 490.515625 624.976562 357.648438 757.757812 C 356.511719 758.894531 355.277344 760.488281 353.886719 760.730469 C 346.824219 761.960938 342.949219 767.414062 338.410156 771.949219 C 297.234375 813.101562 256.097656 854.292969 214.945312 895.472656 C 211.480469 898.9375 205.027344 897.773438 203.082031 893.242188 C 201.917969 890.535156 204.390625 889.367188 205.816406 887.929688 C 219.847656 873.835938 233.933594 859.796875 248 845.738281 C 276.519531 817.242188 304.875 788.578125 333.71875 760.414062 C 338.597656 755.652344 340.050781 749.164062 344.882812 744.261719 Z M 344.882812 744.261719 " fill-opacity="1" fill-rule="nonzero"/><path fill="#664f40" d="M 91.167969 778.503906 C 104.28125 764.898438 117.265625 751.578125 130.410156 738.417969 C 161.070312 707.71875 191.800781 677.089844 222.527344 646.457031 C 224.730469 644.261719 226.554688 642.023438 227.386719 638.851562 C 228.277344 635.476562 230.835938 632.976562 233.277344 630.535156 C 284.847656 579.066406 336.433594 527.621094 387.972656 476.125 C 414.441406 449.671875 440.769531 423.078125 467.257812 396.644531 C 522.65625 341.355469 578.117188 286.132812 633.535156 230.871094 C 635.867188 228.542969 638.210938 226.328125 641.625 225.746094 C 644.550781 225.246094 646.167969 222.90625 648.058594 221.019531 C 688.589844 180.503906 729.101562 139.964844 769.617188 99.433594 C 771.148438 97.902344 772.703125 96.386719 774.261719 94.878906 C 778.296875 90.972656 783.066406 91.558594 786.164062 96.316406 C 787.984375 99.113281 785.375 100.253906 784.015625 101.617188 C 766.042969 119.695312 748.007812 137.707031 729.980469 155.726562 C 705.042969 180.644531 680.035156 205.488281 655.222656 230.53125 C 650.359375 235.4375 648.320312 242.332031 643.183594 247.4375 C 571.886719 318.285156 500.839844 389.382812 429.75 460.4375 C 367.863281 522.292969 306.003906 584.171875 244.121094 646.03125 C 243.105469 647.046875 242.101562 648.5 240.855469 648.804688 C 232.496094 650.867188 227.949219 657.75 222.414062 663.265625 C 182.84375 702.691406 143.378906 742.226562 103.875 781.71875 C 96.800781 788.785156 95.382812 788.453125 91.167969 778.503906 Z M 91.167969 778.503906 " fill-opacity="1" fill-rule="nonzero"/><path fill="#664f40" d="M 615.488281 208.695312 C 659.730469 164.449219 703.699219 120.476562 747.671875 76.515625 C 750.945312 73.242188 757.722656 74.269531 759.84375 78.378906 C 761.144531 80.894531 758.824219 81.976562 757.546875 83.265625 C 742.644531 98.277344 727.714844 113.265625 712.730469 128.191406 C 683.402344 157.40625 654.042969 186.585938 624.667969 215.75 C 622.574219 217.828125 620.742188 219.925781 620.164062 222.960938 C 619.597656 225.933594 617.542969 228.011719 615.472656 230.082031 C 529.273438 316.203125 443.085938 402.339844 356.90625 488.484375 C 314.453125 530.914062 272.011719 573.351562 229.59375 615.8125 C 226.875 618.53125 224.234375 621.082031 220.113281 621.605469 C 217.675781 621.914062 216.210938 624.097656 214.5625 625.746094 C 170.996094 669.363281 127.457031 713.003906 83.84375 756.574219 C 82.140625 758.273438 80.691406 762.421875 77.09375 758.691406 C 72.738281 754.179688 72.378906 751.253906 75.898438 747.738281 C 116.8125 706.84375 157.777344 666 198.640625 625.050781 C 204.054688 619.628906 210.488281 614.972656 212.839844 606.980469 C 213.390625 605.097656 215.484375 603.613281 217.007812 602.085938 C 345.246094 473.890625 473.523438 345.734375 601.617188 217.394531 C 605.691406 213.316406 611.394531 212.878906 615.488281 208.695312 Z M 615.488281 208.695312 " fill-opacity="1" fill-rule="nonzero"/><path fill="#664f40" d="M 719.480469 414.585938 C 732.796875 401.277344 745.839844 388.238281 758.886719 375.199219 C 761.722656 372.367188 764.648438 369.710938 768.800781 368.914062 C 771.273438 368.4375 772.726562 366.429688 774.375 364.785156 C 817.855469 321.320312 861.300781 277.816406 904.894531 234.460938 C 906.726562 232.640625 908.164062 227.453125 912.34375 230.976562 C 917.1875 235.058594 917.011719 238.652344 912.476562 243.1875 C 869.007812 286.65625 825.53125 330.121094 782.050781 373.578125 C 780.382812 375.246094 778.625 376.78125 778.210938 379.3125 C 777.683594 382.511719 775.617188 384.78125 773.410156 386.984375 C 644.613281 515.707031 515.828125 644.441406 387.054688 773.183594 C 384.855469 775.378906 382.679688 777.515625 379.390625 777.9375 C 376.417969 778.316406 374.785156 780.65625 372.894531 782.546875 C 329.5625 825.894531 286.261719 869.269531 242.914062 912.597656 C 241.117188 914.394531 239.726562 917.113281 236.183594 915.828125 C 228.910156 913.191406 228.3125 910.617188 233.785156 905.15625 C 277.417969 861.585938 321.027344 817.992188 364.664062 774.425781 C 366.996094 772.09375 368.9375 769.652344 369.863281 766.355469 C 370.820312 762.96875 373.351562 760.503906 375.792969 758.066406 C 490.265625 643.664062 604.738281 529.261719 719.480469 414.585938 Z M 719.480469 414.585938 " fill-opacity="1" fill-rule="nonzero"/><path fill="#664f40" d="M 913.25 287.1875 C 873.851562 326.566406 834.730469 365.679688 795.605469 404.785156 C 792.667969 407.71875 789.632812 410.460938 788.9375 414.992188 C 788.585938 417.289062 786.613281 418.988281 784.933594 420.667969 C 710.503906 495.03125 636.089844 569.40625 561.671875 643.777344 C 526.773438 678.652344 491.867188 713.519531 456.976562 748.402344 C 445.21875 760.15625 433.480469 771.929688 421.746094 783.707031 C 419.039062 786.425781 416.273438 788.925781 412.214844 789.496094 C 409.707031 789.847656 408.351562 792.058594 406.714844 793.695312 C 362.101562 838.308594 317.515625 882.945312 272.910156 927.566406 C 266.347656 934.132812 265.242188 934.101562 257.835938 927.511719 C 258.125 924.730469 260.496094 923.375 262.210938 921.660156 C 307.304688 876.511719 352.4375 831.394531 397.578125 786.296875 C 400.402344 783.476562 403.203125 780.789062 404.066406 776.570312 C 404.539062 774.273438 406.453125 772.585938 408.128906 770.914062 C 495.730469 683.390625 583.324219 595.859375 670.921875 508.328125 C 704.042969 475.234375 737.164062 442.140625 770.269531 409.03125 C 773.222656 406.078125 776.039062 403.109375 780.488281 402.328125 C 782.902344 401.90625 784.261719 399.628906 785.90625 397.984375 C 831.300781 352.621094 876.65625 307.222656 922.125 261.929688 C 923.773438 260.289062 925.15625 255.816406 928.832031 259.191406 C 932.753906 262.789062 933.085938 267.261719 929.992188 270.414062 C 924.546875 275.960938 919.019531 281.421875 913.25 287.1875 Z M 913.25 287.1875 " fill-opacity="1" fill-rule="nonzero"/><path fill="#664f40" d="M 83.457031 695.414062 C 120.824219 658.078125 157.910156 621.011719 195.015625 583.960938 C 197.328125 581.652344 199.421875 579.382812 200.261719 575.976562 C 201.097656 572.582031 203.730469 570.121094 206.175781 567.683594 C 240.082031 533.847656 273.980469 500.003906 307.878906 466.164062 C 369.292969 404.867188 430.710938 343.578125 492.113281 282.273438 C 516.554688 257.871094 541.207031 233.679688 565.195312 208.839844 C 570.878906 202.957031 578.53125 200.539062 584.101562 194.96875 C 628.210938 150.859375 672.320312 106.746094 716.417969 62.625 C 723.335938 55.703125 723.9375 55.660156 731.828125 62.351562 C 732.0625 64.515625 730.222656 65.421875 729.015625 66.632812 C 684.390625 111.246094 639.742188 155.835938 595.101562 200.429688 C 591.675781 203.851562 587.984375 206.96875 586.882812 212.195312 C 586.488281 214.078125 584.484375 215.738281 582.964844 217.253906 C 509.695312 290.5 436.382812 363.707031 363.109375 436.949219 C 314.769531 485.269531 266.472656 533.632812 218.175781 581.988281 C 215.484375 584.683594 213.003906 587.472656 208.789062 587.898438 C 206.542969 588.125 205.238281 590.273438 203.71875 591.789062 C 158.203125 637.300781 112.703125 682.824219 67.179688 728.328125 C 65.808594 729.699219 64.746094 731.535156 62.597656 731.914062 C 55.960938 726.039062 55.773438 723.085938 61.691406 717.148438 C 68.84375 709.980469 76.019531 702.835938 83.457031 695.414062 Z M 83.457031 695.414062 " fill-opacity="1" fill-rule="nonzero"/><path fill="#664f40" d="M 48.988281 684.839844 C 77.894531 655.929688 106.527344 627.292969 135.179688 598.675781 C 152.570312 581.308594 170.011719 563.984375 187.398438 546.609375 C 189.695312 544.3125 191.660156 541.875 192.480469 538.480469 C 193.355469 534.851562 196.425781 532.523438 198.980469 529.96875 C 297.960938 431.050781 396.945312 332.136719 495.925781 233.21875 C 508.074219 221.078125 520.238281 208.953125 532.351562 196.773438 C 534.820312 194.292969 537.425781 192.144531 540.957031 191.433594 C 543.632812 190.898438 545.253906 188.867188 547.027344 187.085938 C 570.613281 163.378906 594.132812 139.605469 617.777344 115.960938 C 640.65625 93.082031 663.664062 70.328125 686.609375 47.519531 C 692.644531 41.523438 694.800781 41.503906 701.972656 47.453125 C 701.632812 50.019531 699.484375 51.316406 697.875 52.925781 C 650.042969 100.699219 602.179688 148.441406 554.335938 196.203125 C 553.320312 197.21875 551.886719 198.292969 551.648438 199.53125 C 550.171875 207.109375 544.21875 211.28125 539.300781 216.199219 C 433.710938 321.804688 328.09375 427.378906 222.476562 532.957031 C 217.875 537.558594 213.242188 542.132812 208.613281 546.707031 C 207.84375 547.464844 207.121094 548.535156 206.179688 548.820312 C 193.777344 552.589844 187.230469 563.46875 178.796875 571.820312 C 136.667969 613.535156 94.914062 655.625 53.015625 697.574219 C 51.378906 699.214844 49.640625 700.753906 47.984375 702.308594 C 40.976562 696.144531 41.214844 692.300781 48.988281 684.839844 Z M 48.988281 684.839844 " fill-opacity="1" fill-rule="nonzero"/><path fill="#664f40" d="M 642.996094 607.191406 C 580.722656 669.476562 518.714844 731.484375 456.734375 793.523438 C 454.640625 795.621094 452.464844 797.449219 449.472656 797.960938 C 446.335938 798.5 444.566406 800.949219 442.5625 802.945312 C 418.503906 826.941406 394.5 850.992188 370.488281 875.03125 C 347.359375 898.179688 324.25 921.34375 301.097656 944.464844 C 297.179688 948.378906 295.117188 948.078125 287.867188 942.894531 C 287.769531 940.246094 289.859375 938.820312 291.4375 937.242188 C 339.167969 889.601562 386.933594 842 434.699219 794.394531 C 437.007812 792.089844 439.03125 789.765625 439.859375 786.347656 C 440.773438 782.554688 443.859375 779.984375 446.546875 777.296875 C 490.03125 733.847656 533.53125 690.40625 577.007812 646.945312 C 642.734375 581.242188 708.441406 515.515625 774.179688 449.824219 C 778.613281 445.390625 782.613281 440.390625 789.375 438.996094 C 791.070312 438.648438 792.488281 436.640625 793.886719 435.246094 C 841.472656 387.710938 889.035156 340.15625 936.628906 292.628906 C 938.375 290.882812 939.820312 288.65625 942.457031 288.03125 C 948.492188 295.042969 948.496094 297.113281 942.347656 303.261719 C 895.6875 349.925781 849.019531 396.578125 802.347656 443.226562 C 799.90625 445.667969 797.539062 448.027344 796.867188 451.703125 C 796.28125 454.898438 793.566406 456.796875 791.40625 458.953125 C 742.035156 508.28125 692.648438 557.597656 642.996094 607.191406 Z M 642.996094 607.191406 " fill-opacity="1" fill-rule="nonzero"/><path fill="#664f40" d="M 908.382812 382.144531 C 873.828125 416.652344 839.554688 450.898438 805.261719 485.125 C 803.191406 487.1875 801.277344 489.21875 800.753906 492.304688 C 800.246094 495.289062 798.152344 497.398438 796.085938 499.453125 C 767.128906 528.261719 738.109375 557.003906 709.226562 585.890625 C 644.050781 651.070312 578.945312 716.324219 513.8125 781.546875 C 507.683594 787.6875 501.542969 793.8125 495.382812 799.921875 C 494.621094 800.675781 493.785156 801.671875 492.832031 801.878906 C 483.378906 803.957031 478.515625 811.941406 472.375 818.050781 C 425.988281 864.210938 379.789062 910.566406 333.527344 956.855469 C 329.238281 961.144531 326.222656 960.929688 319.414062 955.921875 C 319.488281 953.460938 321.5625 952.308594 323.023438 950.847656 C 372.605469 901.230469 422.21875 851.640625 471.832031 802.058594 C 475.273438 798.617188 478.867188 795.429688 480.078125 790.28125 C 480.738281 787.476562 483.390625 785.621094 485.4375 783.578125 C 578.542969 690.554688 671.652344 597.535156 764.757812 504.515625 C 771.023438 498.253906 777.289062 491.988281 783.566406 485.738281 C 784.464844 484.847656 785.296875 483.664062 786.394531 483.246094 C 799.730469 478.195312 807.375 466.394531 816.863281 457.019531 C 861.871094 412.542969 906.429688 367.617188 951.160156 322.859375 C 952.417969 321.601562 953.535156 320.109375 955.398438 319.714844 C 960.917969 325.414062 961.03125 329.488281 955.824219 334.699219 C 940.109375 350.433594 924.378906 366.152344 908.382812 382.144531 Z M 908.382812 382.144531 " fill-opacity="1" fill-rule="nonzero"/><path fill="#664f40" d="M 37.382812 651.511719 C 86.25 602.671875 134.84375 554.101562 183.453125 505.546875 C 186.027344 502.976562 187.984375 500.28125 189.210938 496.640625 C 191.429688 490.039062 197.707031 486.441406 202.363281 481.769531 C 255.078125 428.894531 308.007812 376.230469 360.847656 323.476562 C 403.574219 280.8125 446.253906 238.097656 488.949219 195.394531 C 491.894531 192.449219 494.699219 189.402344 499.175781 188.71875 C 501.449219 188.367188 502.742188 186.347656 504.261719 184.832031 C 554.125 134.976562 603.976562 85.109375 653.839844 35.253906 C 660.347656 28.746094 661.640625 28.664062 670.191406 34.007812 C 669.78125 36.890625 667.261719 38.332031 665.453125 40.144531 C 614.855469 90.800781 564.210938 141.417969 513.570312 192.039062 C 511.027344 194.582031 508.574219 196.980469 507.824219 200.902344 C 507.210938 204.125 504.363281 206.300781 502.050781 208.605469 C 428.714844 281.777344 355.375 354.949219 282.050781 428.136719 C 256.839844 453.296875 231.65625 478.484375 206.488281 503.695312 C 204.03125 506.160156 201.589844 508.449219 197.960938 509.085938 C 195.289062 509.554688 193.742188 511.777344 191.96875 513.546875 C 141.972656 563.53125 92 613.535156 41.988281 663.5 C 39.59375 665.890625 37.515625 668.699219 34.414062 670.292969 C 28.75 664.207031 28.683594 660.175781 34.054688 654.863281 C 35.082031 653.847656 36.09375 652.8125 37.382812 651.511719 Z M 37.382812 651.511719 " fill-opacity="1" fill-rule="nonzero"/><path fill="#664f40" d="M 354.886719 310.398438 C 305.148438 360.15625 255.683594 409.644531 206.21875 459.128906 C 182.082031 473.742188 165.566406 496.605469 145.464844 515.574219 C 125.09375 534.800781 105.71875 555.082031 85.902344 574.902344 C 66.214844 594.589844 46.527344 614.28125 26.835938 633.964844 C 25.703125 635.097656 24.671875 636.398438 22.996094 636.695312 C 17.769531 629.855469 17.910156 626.160156 23.582031 620.488281 C 77.167969 566.925781 130.757812 513.371094 184.351562 459.820312 C 187.035156 457.136719 189.695312 454.605469 190.464844 450.515625 C 190.964844 447.867188 193.125 445.867188 195.066406 443.929688 C 277.960938 361.121094 360.847656 278.304688 443.71875 195.46875 C 446.324219 192.863281 449.058594 190.574219 452.800781 189.90625 C 455.550781 189.414062 457 187.183594 458.753906 185.429688 C 512.738281 131.5 566.699219 77.546875 620.667969 23.601562 C 626.039062 18.230469 629.625 18.074219 636.53125 22.890625 C 636.558594 24.984375 634.847656 25.96875 633.617188 27.203125 C 578.910156 81.9375 524.191406 136.65625 469.460938 191.367188 C 466.019531 194.804688 462.328125 197.953125 461.214844 203.136719 C 460.875 204.722656 459.285156 206.152344 458.023438 207.410156 C 423.753906 241.667969 389.453125 275.894531 354.886719 310.398438 Z M 354.886719 310.398438 " fill-opacity="1" fill-rule="nonzero"/><path fill="#664f40" d="M 583.753906 730.230469 C 647.324219 666.703125 710.625 603.445312 773.9375 540.203125 C 778.246094 535.902344 782.078125 530.992188 788.691406 529.742188 C 790.226562 529.453125 791.542969 527.625 792.8125 526.355469 C 849.210938 470 905.589844 413.628906 961.992188 357.273438 C 963.476562 355.792969 964.652344 353.800781 967.023438 353.488281 C 972.042969 360.699219 971.886719 363.78125 965.886719 369.78125 C 912.460938 423.230469 859.007812 476.648438 805.578125 530.09375 C 801.667969 534.003906 797.242188 537.433594 795.832031 543.371094 C 795.347656 545.414062 793.164062 547.164062 791.519531 548.808594 C 709.4375 630.863281 627.285156 712.851562 545.347656 795.050781 C 541.3125 799.101562 535.765625 799.601562 531.804688 803.613281 C 503.875 831.929688 475.710938 860.011719 447.574219 888.117188 C 421.480469 914.183594 395.339844 940.199219 369.199219 966.21875 C 363.476562 971.914062 360.9375 972.054688 353.203125 967.332031 C 353.328125 964.652344 355.628906 963.464844 357.210938 961.886719 C 411.789062 907.292969 466.40625 852.734375 521.019531 798.171875 C 524.199219 794.992188 527.554688 792.039062 528.519531 787.21875 C 529.097656 784.324219 531.539062 782.375 533.597656 780.324219 C 550.234375 763.726562 566.855469 747.113281 583.753906 730.230469 Z M 583.753906 730.230469 " fill-opacity="1" fill-rule="nonzero"/><path fill="#664f40" d="M 497.761719 118 C 466.652344 149.058594 435.828125 179.855469 404.964844 210.617188 C 402.75 212.824219 400.78125 215.03125 400.140625 218.242188 C 399.503906 221.421875 397.132812 223.515625 394.949219 225.6875 C 369.570312 250.929688 344.144531 276.121094 318.832031 301.425781 C 292.113281 328.136719 265.515625 354.960938 238.835938 381.707031 C 233.730469 386.828125 229.144531 392.804688 223.214844 396.699219 C 196.324219 414.359375 177.066406 440.019531 154.109375 461.765625 C 130.882812 483.765625 108.75 506.917969 86.125 529.550781 C 63.625 552.054688 41.117188 574.546875 18.585938 597.015625 C 17.101562 598.496094 15.972656 600.542969 13.5625 600.816406 C 9.101562 593.53125 9.511719 589.421875 15.070312 583.863281 C 77.207031 521.734375 139.300781 459.5625 201.523438 397.523438 C 207.425781 391.640625 209.898438 383.675781 215.960938 377.703125 C 261.558594 332.796875 306.714844 287.449219 352.007812 242.234375 C 360.066406 234.1875 367.980469 225.988281 376.210938 218.121094 C 380.941406 213.597656 384.65625 207.683594 391.910156 206.242188 C 393.601562 205.902344 395.03125 203.886719 396.429688 202.492188 C 458.972656 140.003906 521.503906 77.503906 584.03125 14.996094 C 589.269531 9.757812 593.78125 9.378906 601.484375 14.152344 C 566.902344 48.78125 532.46875 83.257812 497.761719 118 Z M 497.761719 118 " fill-opacity="1" fill-rule="nonzero"/><path fill="#664f40" d="M 506.199219 857.746094 C 531.925781 832.050781 557.378906 806.625 582.84375 781.207031 C 585.402344 778.652344 587.847656 776.191406 588.652344 772.332031 C 589.242188 769.488281 591.640625 767.464844 593.703125 765.410156 C 650.378906 708.820312 707.054688 652.226562 763.703125 595.609375 C 765.917969 593.398438 768.199219 591.429688 771.355469 590.769531 C 774.605469 590.085938 776.503906 587.539062 778.65625 585.382812 C 842.714844 521.34375 906.757812 457.289062 970.828125 393.261719 C 972.4375 391.652344 973.71875 389.484375 976.300781 389.132812 C 980.644531 396.46875 980.3125 400.1875 974.714844 405.789062 C 911.953125 468.5625 849.1875 531.328125 786.398438 594.074219 C 784.074219 596.398438 782.359375 598.839844 781.179688 602.054688 C 778.9375 608.179688 773.351562 611.90625 768.941406 616.332031 C 734.117188 651.300781 699.089844 686.066406 664.140625 720.914062 C 644.167969 740.824219 625.152344 761.84375 603.863281 780.222656 C 593.886719 788.835938 583.492188 797.042969 574.132812 806.390625 C 517.976562 862.476562 461.878906 918.621094 405.757812 974.742188 C 400.023438 980.480469 397.183594 980.820312 387.867188 976.101562 C 427.425781 936.539062 466.675781 897.277344 506.199219 857.746094 Z M 506.199219 857.746094 " fill-opacity="1" fill-rule="nonzero"/><path fill="#664f40" d="M 28.625 525.566406 C 106.105469 448.089844 183.3125 370.878906 260.527344 293.679688 C 355.132812 199.09375 449.824219 104.597656 544.179688 9.769531 C 550.355469 3.566406 555.851562 4.667969 561.425781 5.867188 C 376.351562 191.019531 191.109375 376.339844 6.164062 561.359375 C 2.957031 555.207031 3.453125 550.882812 8.84375 545.441406 C 15.332031 538.894531 21.847656 532.371094 28.625 525.566406 Z M 28.625 525.566406 " fill-opacity="1" fill-rule="nonzero"/><path fill="#664f40" d="M 576.664062 849 C 547.214844 878.390625 518.039062 907.503906 488.863281 936.617188 C 474.40625 951.042969 459.933594 965.453125 445.5 979.898438 C 438.65625 986.746094 437.183594 987.09375 428.984375 984.1875 C 613.707031 799.320312 798.917969 613.964844 983.820312 428.917969 C 986.769531 434.523438 986.414062 438.972656 981.808594 443.585938 C 941.089844 484.414062 900.417969 525.292969 859.628906 566.054688 C 777.386719 648.238281 695.070312 730.34375 612.808594 812.507812 C 600.785156 824.515625 588.894531 836.648438 576.664062 849 Z M 576.664062 849 " fill-opacity="1" fill-rule="nonzero"/><g clip-path="url(#7e2a5fd557)"><path fill="#664f40" d="M 507.257812 946.691406 C 610.210938 843.75 712.890625 741.074219 815.570312 638.402344 C 870.683594 583.296875 925.800781 528.191406 980.949219 473.121094 C 982.675781 471.402344 984.046875 469.074219 986.765625 468.5625 C 989.800781 475.648438 988.90625 481.574219 983.960938 486.519531 C 881.921875 588.558594 779.863281 690.578125 677.824219 792.617188 C 614.144531 856.296875 550.410156 919.917969 486.957031 983.816406 C 480.992188 989.820312 475.175781 989.324219 466.523438 987.433594 C 480.625 973.328125 493.804688 960.144531 507.257812 946.691406 Z M 507.257812 946.691406 " fill-opacity="1" fill-rule="nonzero"/></g><g clip-path="url(#f6978b8376)"><path fill="#664f40" d="M 204.582031 304.40625 C 304.316406 204.679688 403.777344 105.226562 503.246094 5.78125 C 508.355469 0.675781 514.195312 -0.171875 520.320312 2.601562 C 347.785156 175.152344 174.988281 347.964844 2.433594 520.539062 C -0.421875 513.882812 0.40625 508.558594 5.640625 503.324219 C 71.863281 437.109375 138.089844 370.894531 204.582031 304.40625 Z M 204.582031 304.40625 " fill-opacity="1" fill-rule="nonzero"/></g><path fill="#664f40" d="M 413.507812 67.382812 C 311.230469 169.648438 209.222656 271.644531 107.214844 373.636719 C 73.722656 407.125 40.222656 440.601562 6.710938 474.066406 C 5.5 475.273438 4.523438 476.96875 1.601562 476.929688 C 1.839844 470.136719 0.378906 463.660156 6.109375 457.941406 C 80.328125 383.894531 154.414062 309.714844 228.550781 235.582031 C 304.984375 159.148438 381.476562 82.769531 457.796875 6.21875 C 463.640625 0.355469 470.171875 2.675781 476.449219 1.511719 C 476.777344 2.121094 477.109375 2.730469 477.441406 3.335938 C 456.222656 24.597656 435 45.855469 413.507812 67.382812 Z M 413.507812 67.382812 " fill-opacity="1" fill-rule="nonzero"/><g clip-path="url(#74dde4db8c)"><path fill="#664f40" d="M 713.222656 785.917969 C 804.386719 694.570312 895.285156 603.492188 986.464844 512.136719 C 989.550781 518.964844 988.359375 526.863281 984.003906 531.230469 C 947.265625 568.078125 910.507812 604.898438 873.742188 641.714844 C 834.804688 680.710938 795.875 719.710938 756.898438 758.667969 C 681.492188 834.042969 606.054688 909.386719 530.628906 984.742188 C 526.820312 988.546875 518.050781 989.875 512.050781 987.164062 C 579.140625 920.050781 646.046875 853.121094 713.222656 785.917969 Z M 713.222656 785.917969 " fill-opacity="1" fill-rule="nonzero"/></g><path fill="#664f40" d="M 669.445312 874.515625 C 773.949219 770.054688 878.191406 665.875 982.433594 561.695312 C 982.875 561.988281 983.3125 562.285156 983.753906 562.578125 C 983.148438 570.605469 982.671875 578.125 975.972656 584.804688 C 851.179688 709.265625 726.597656 833.9375 601.96875 958.5625 C 595.320312 965.207031 588.589844 971.769531 582.035156 978.507812 C 576.367188 984.335938 569.078125 983.03125 562.355469 984.277344 C 562.019531 983.730469 561.683594 983.1875 561.347656 982.640625 C 597.292969 946.691406 633.234375 910.742188 669.445312 874.515625 Z M 669.445312 874.515625 " fill-opacity="1" fill-rule="nonzero"/><path fill="#664f40" d="M 228.460938 190.484375 C 287.9375 131.019531 347.191406 71.878906 406.265625 12.558594 C 412.457031 6.335938 419.9375 7.378906 427.527344 6.089844 C 426.007812 9.972656 11.5625 425.046875 5.351562 428.71875 C 7.476562 420.574219 5.855469 412.964844 12.179688 406.660156 C 84.273438 334.78125 156.207031 262.746094 228.460938 190.484375 Z M 228.460938 190.484375 " fill-opacity="1" fill-rule="nonzero"/><path fill="#664f40" d="M 162.363281 228.550781 C 114.234375 276.671875 66.371094 324.515625 18.503906 372.359375 C 18.03125 372.058594 17.558594 371.757812 17.085938 371.460938 C 19.234375 363.589844 19.191406 354.972656 25.617188 348.546875 C 99.636719 274.535156 173.664062 200.53125 247.679688 126.519531 C 280.789062 93.410156 314 60.402344 346.878906 27.066406 C 353.890625 19.957031 362.816406 19.734375 371.144531 17.070312 C 371.53125 17.578125 371.914062 18.085938 372.300781 18.59375 C 302.410156 88.488281 232.519531 158.378906 162.363281 228.550781 Z M 162.363281 228.550781 " fill-opacity="1" fill-rule="nonzero"/><path fill="#664f40" d="M 852.125 737.113281 C 891.960938 697.226562 931.527344 657.613281 970.804688 618.285156 C 972.851562 618.894531 972.773438 619.925781 972.5625 620.730469 C 970.140625 629.957031 967.339844 638.457031 959.945312 645.769531 C 910.730469 694.445312 862.097656 743.710938 813.140625 792.652344 C 755.625 850.15625 697.984375 907.53125 640.375 964.941406 C 634.203125 971.089844 625.824219 970.9375 618.277344 973.148438 C 617.980469 972.695312 617.679688 972.242188 617.378906 971.785156 C 695.539062 893.652344 773.695312 815.519531 852.125 737.113281 Z M 852.125 737.113281 " fill-opacity="1" fill-rule="nonzero"/><path fill="#664f40" d="M 122.144531 206.773438 C 173.171875 155.738281 223.851562 104.898438 274.761719 54.28125 C 282.464844 46.621094 293.324219 44.460938 303.363281 39.921875 C 302.25 44.429688 48.390625 298.960938 40.84375 303.710938 C 39.4375 302.550781 40.632812 301.496094 40.949219 300.378906 C 46.304688 281.394531 59.929688 268.441406 73.441406 255.28125 C 89.761719 239.382812 105.742188 223.136719 122.144531 206.773438 Z M 122.144531 206.773438 " fill-opacity="1" fill-rule="nonzero"/><path fill="#664f40" d="M 727.449219 906.476562 C 801.3125 832.667969 874.902344 759.132812 948.546875 685.539062 C 949.257812 686.382812 949.714844 686.734375 949.65625 686.878906 C 945.226562 697.652344 941.867188 708.875 933.199219 717.519531 C 861.039062 789.527344 788.953125 861.609375 716.980469 933.800781 C 708.203125 942.605469 696.664062 945.324219 686.351562 950.761719 C 685.921875 950.1875 685.492188 949.613281 685.066406 949.039062 C 699.101562 934.941406 713.140625 920.84375 727.449219 906.476562 Z M 727.449219 906.476562 " fill-opacity="1" fill-rule="nonzero"/><path fill="#664f40" d="M 214.988281 88.054688 C 216.484375 87.015625 217.644531 86.152344 218.882812 85.417969 C 219.269531 85.1875 219.863281 85.3125 219.335938 85.351562 C 174.875 129.839844 129.929688 174.820312 84.238281 220.539062 C 119.9375 167.875 163.074219 123.9375 214.988281 88.054688 Z M 214.988281 88.054688 " fill-opacity="1" fill-rule="nonzero"/><path fill="#664f40" d="M 820.882812 866.480469 C 804.445312 880.625 787.824219 893.894531 771.820312 904.230469 C 814.953125 861.089844 859.605469 816.425781 903.703125 772.324219 C 880.34375 806.4375 852.855469 838.140625 820.882812 866.480469 Z M 820.882812 866.480469 " fill-opacity="1" fill-rule="nonzero"/></g></g></g></svg>